<svg width="186" height="198" viewBox="0 0 186 198" fill="none" xmlns="http://www.w3.org/2000/svg">
<path d="M14.1117 0.0085135C45.5719 0.00114059 77.0247 -0.00623231 108.485 0.0085135C130.026 -0.00131704 151.58 -0.00377468 173.121 0.0085135C174.364 0.183006 175.728 0.207581 176.807 0.74826C177.299 0.853939 177.81 1.23487 178.282 1.40691C178.948 1.58632 179.476 2.14912 180.137 2.34081C180.762 2.92081 181.528 3.41234 182.081 4.08081C182.612 4.61658 183.054 5.23836 183.576 5.77904C183.893 6.43031 184.305 7.26345 184.637 7.88032C185.468 9.52202 185.819 11.2153 185.868 13.0414C185.942 35.1527 185.856 57.2812 185.891 79.3975C185.886 103.379 185.913 127.43 185.9 151.406C185.898 157.221 185.942 163.041 185.891 168.855C185.846 174.343 185.937 179.834 185.876 185.322C185.731 185.914 185.817 186.636 185.522 187.153C185.5 188.261 184.912 189.04 184.524 189.991C184.465 190.64 184.067 190.669 183.897 191.21C183.578 191.606 183.492 192.282 183.059 192.552C182.568 193.193 181.958 193.754 181.393 194.331C181.059 194.611 180.823 194.96 180.361 195.019C180.199 195.346 179.978 195.457 179.624 195.511C179.434 195.821 179.225 195.907 178.886 196.002C178.267 196.602 177.048 196.818 176.316 197.175C175.193 197.526 174.06 197.742 172.875 197.711C119.463 197.713 66.0489 197.711 12.6372 197.713C11.7082 197.755 11.0839 197.448 10.1795 197.374C9.56266 197.131 8.94579 197.155 8.34859 196.74C7.26968 196.585 6.38002 195.604 5.37731 195.285C5.01358 194.838 4.47535 194.565 4.10917 194.098C2.69357 192.744 1.71297 191.149 0.973223 189.364C0.557883 188.843 0.626696 188.192 0.216271 187.669C0.191695 187.125 0.0122882 186.607 0 186.059C0 127.978 0 69.8938 0 11.8125C0.0516103 10.4092 0.530849 9.52693 0.953562 8.23668C1.43034 7.98845 1.15755 7.44532 1.5778 7.14057C1.92187 6.80633 1.98085 6.02726 2.4478 5.80116C2.73043 4.95573 3.62993 4.29955 4.18781 3.61141C4.80959 3.04369 5.569 2.35801 6.38002 2.11471C6.76587 1.57157 7.66291 1.40937 8.22571 1.05792C10.0566 0.269024 12.1235 -0.0455545 14.1117 0.0085135Z" fill="#170D0A"/>
<path d="M12.3915 1.1022C20.4181 1.04567 28.4497 1.09974 36.4763 1.07516C54.5031 1.10465 72.5151 1.07762 90.5443 1.08008C96.1748 1.10711 102.078 1.00143 107.659 1.09728C107.964 1.60355 107.765 2.38754 107.804 2.96508C107.814 15.0861 107.782 27.2195 107.819 39.3381C107.826 39.6502 107.563 39.9623 107.256 39.9746C105.89 40.068 105.017 40.2941 103.803 40.7807C103.211 41.0142 102.609 41.4467 101.96 41.663C101.451 42.1914 100.837 42.2381 100.375 42.7616C98.9814 43.7839 98.1728 44.8579 97.1529 46.2072C96.482 47.3107 96.0961 48.6943 95.5726 49.7683C95.4842 50.7292 95.2556 51.9064 95.0713 52.8551C95.0737 56.8709 95.0688 60.8817 95.0713 64.8975C94.9951 65.1678 94.7985 65.2833 94.4765 65.2416C91.3652 65.1654 88.2489 65.2342 85.1375 65.2121C84.7123 65.1752 84.3953 65.4505 84.3855 65.8805C84.3462 70.7147 84.4002 75.5464 84.3511 80.3806C84.3216 81.1547 84.4371 81.9953 84.3019 82.7522C83.7145 83.4969 82.729 83.9786 82.0753 84.6913C81.6895 84.8166 81.3233 85.0968 81.0922 85.4286C80.6745 85.6252 80.1215 86.0282 79.8634 86.4116C79.4948 86.537 79.1016 86.827 78.8804 87.1489C78.1333 87.4561 77.5655 88.1639 76.8725 88.5891C76.3097 89.0732 75.7592 89.1838 75.3168 89.7491C74.4861 90.4618 73.3998 90.9853 72.7363 91.8184C72.3087 92.0027 71.7655 92.4181 71.5075 92.8015C70.5465 93.2709 69.7011 94.1581 68.777 94.7406C68.5436 94.8757 68.2757 95.2886 68.0103 95.2911C67.8653 94.9519 67.9537 94.5071 67.9439 94.1433C68.0029 89.9678 67.9316 85.7849 67.9046 81.6094C67.8702 80.6067 68.0619 79.4934 67.8235 78.5251C65.1053 76.3132 62.2446 73.9219 59.5683 71.7887C59.3397 71.5503 59.2168 71.3512 58.8949 71.221C57.2556 69.9307 55.3166 68.4611 53.8592 67.1806C53.0629 66.7211 52.4141 65.8879 51.581 65.5217C50.9887 64.664 49.7967 64.1258 49.143 63.2902C48.2779 62.8626 47.7471 62.0737 46.9115 61.5895C46.1889 60.8104 44.8618 60.0338 44.0827 59.2646C43.6158 58.8198 43.0825 58.4781 42.5811 58.0776C41.9053 57.8023 41.4948 56.9028 40.7674 56.6742C40.4995 56.4359 40.266 56.077 39.917 55.9837C27.0661 55.9615 14.4068 56.0058 1.57792 55.9959C1.3641 56.0033 1.1552 55.9837 0.953678 55.937C0.879949 54.9048 0.953677 53.8897 0.943847 52.8551C0.95122 39.4266 0.934017 25.8186 0.953678 12.4122C1.40342 11.3358 1.18961 10.0283 1.79419 9.10917C2.01046 8.37188 2.443 7.72553 2.67402 7.01035C2.89767 6.78671 3.11394 6.60976 3.16555 6.27306C3.54403 6.11577 3.59809 5.77416 3.90284 5.53331C6.02378 2.95034 9.10074 1.4266 12.3915 1.1022Z" fill="#F6C158"/>
<path d="M109.063 1.30375C109.235 1.17596 109.451 1.12434 109.714 1.14892C130.769 1.14401 151.821 1.15383 172.875 1.144C174.021 1.13663 175.262 1.35536 176.328 1.68468C177.225 2.10002 178.179 2.45884 179.019 2.98477C180.681 4.18656 182.148 5.63656 183.247 7.37411C183.809 7.97377 183.937 8.6742 184.048 9.49259C184.338 9.84403 184.22 10.193 184.443 10.5838C184.512 11.5029 184.957 12.8178 184.559 13.6657C171.747 13.6902 158.678 13.6681 145.841 13.6755C145.043 13.6607 144.291 13.909 143.492 13.8918C143.158 14.2235 142.696 13.9999 142.386 14.2285C141.064 14.6069 139.631 15.5359 138.333 16.1036C137.109 17.2735 135.369 18.4753 134.669 20.058C133.696 21.2032 133.492 22.4959 133.116 23.8698C132.713 24.5653 132.909 25.6147 132.683 26.3987C132.548 27.8978 132.676 29.306 132.101 30.7364C131.98 31.4393 131.558 32.1987 131.241 32.8622C130.592 34.3 129.164 35.4157 128.036 36.5217C125.689 38.3305 122.489 39.2177 119.545 39.4291C116.187 39.4438 112.828 39.4291 109.468 39.4364C109.159 39.4684 108.989 39.3529 108.957 39.0924C108.952 26.7231 108.933 14.3489 108.982 1.98206C108.974 1.74613 109.001 1.52002 109.063 1.30375Z" fill="#ED6E4E"/>
<path d="M147.07 14.7495C159.523 14.7568 171.973 14.747 184.426 14.7519L184.62 14.8207C184.723 15.0149 184.763 15.241 184.733 15.4991C184.741 24.7545 184.706 34.0149 184.728 43.2703C184.755 43.5259 184.716 43.7496 184.61 43.9413C183.785 44.1281 182.821 43.9683 181.968 44.0003C173.694 44.0125 165.419 43.9806 157.146 44.0125C156.038 44.074 154.187 44.3419 153.079 44.3664C152.774 44.5999 152.455 44.5901 152.093 44.6122C151.408 45.1381 150.383 44.8211 149.665 45.3692C147.871 45.6985 146.131 46.8118 144.48 47.5614C143.755 48.2298 142.882 48.4781 142.287 49.3014C141.779 49.3923 141.368 49.8937 140.975 50.2058C140.063 50.9824 139.129 51.8917 138.09 52.4766C137.837 52.8428 137.547 53.1009 137.107 53.2139C136.618 53.7915 135.625 53.9316 135.128 54.4354C134.526 54.8089 133.799 55.0744 133.194 55.4455C132.587 55.4602 132.11 55.7551 131.587 55.9468C130.085 56.4678 128.815 56.5711 127.409 56.9274C123.961 57.1584 120.555 57.038 117.087 57.0773C115.379 57.1117 113.813 56.925 112.172 57.4214C109.942 57.8466 108.102 59.1196 106.615 60.808C106.231 61.4224 105.762 61.823 105.669 62.5751C105.074 63.4942 105.298 64.0152 104.956 65.072C104.786 65.2047 104.57 65.2539 104.307 65.2195C101.768 65.1654 99.2272 65.1556 96.6884 65.217C96.4181 65.158 96.3026 64.9688 96.3394 64.6518C96.3394 60.4738 96.337 56.2958 96.3394 52.1178C96.4918 50.4491 97.1972 48.7066 97.9295 47.2026C98.6595 45.6936 99.8096 44.5631 101.112 43.5775C102.901 42.4249 105.189 41.3239 107.256 40.8299C107.836 40.5669 108.586 40.648 109.222 40.5547C113.285 40.562 117.34 40.5915 121.4 40.4539C121.545 40.3556 121.697 40.2671 121.862 40.1885C122.558 40.2057 123.332 39.896 123.968 39.6871C124.902 39.6109 125.797 38.8712 126.672 38.5885C127.17 38.3207 127.571 38.0626 128.134 37.8119C130.793 36.0646 132.57 33.2211 133.45 30.2449C133.467 29.8836 133.511 29.4781 133.686 29.1561C133.727 27.6668 133.75 26.1824 133.912 24.698C134.202 24.0443 134.239 23.2627 134.573 22.6262C135.861 19.3551 138.648 16.8139 141.909 15.5777C143.583 15.0813 145.308 14.6733 147.07 14.7495Z" fill="#F6EAD5"/>
<path d="M69.8809 15.5727C72.046 15.8898 74.0195 16.5755 75.8136 17.9075C78.3376 19.5099 80.3307 21.8053 81.3949 24.6046C81.9577 25.6515 82.1002 26.6321 82.4959 27.77C82.8326 29.043 82.7884 30.4021 82.7859 31.7194C82.8105 32.5181 82.5377 33.2677 82.5672 34.0665C82.3534 34.2704 82.3042 34.6415 82.1887 34.9143C81.9159 35.976 81.4219 36.964 81.0926 37.9987C79.6401 40.4391 77.76 42.5035 75.295 43.9855C74.774 44.3959 74.1105 44.7498 73.4518 44.8579C72.5965 45.32 71.5889 45.6223 70.6378 45.814C69.3033 46.2293 67.9172 46.0327 66.4598 46.0769C65.0934 46.1334 63.7958 45.9344 62.5448 45.4158C61.461 45.0349 60.1339 44.536 59.1582 43.9216C57.0495 42.4839 55.0122 40.7488 53.8251 38.4435C53.2869 37.5489 53.11 36.8338 52.6922 35.8974C52.3063 34.6096 51.8074 33.5946 51.8566 32.2109C51.8959 30.7142 51.7312 29.2151 52.0507 27.7872C52.6061 25.3394 53.83 22.4615 55.5873 20.6601C56.0517 19.9891 56.6907 19.3772 57.3764 18.9495C57.8704 18.3278 58.6716 17.9395 59.3327 17.4995C60.156 17.1948 60.6574 16.7033 61.5175 16.401C64.1619 15.3196 67.0644 15.1722 69.8809 15.5727Z" fill="#170D0A"/>
<path d="M64.6014 16.5952C66.656 16.401 68.6172 16.2683 70.6374 16.7967C70.9962 16.7942 71.1854 16.9343 71.4853 17.1063C74.3337 17.91 76.897 19.5714 78.6124 22.0241C78.9368 22.6803 79.3472 22.8818 79.6987 23.6093C80.6694 24.9511 81.0528 26.7477 81.5911 28.2788C81.5468 29.2716 81.7729 30.2326 81.7041 31.2279C81.6795 34.3467 80.4433 37.1852 78.5682 39.6355C77.3074 41.083 75.737 42.6461 73.9429 43.3834C71.0429 45.2241 67.558 45.3642 64.2328 44.8137C62.0971 44.4205 60.2784 43.3563 58.5016 42.1398C56.8402 40.8397 55.5033 39.2128 54.4809 37.372C54.3039 36.6175 53.8026 35.8655 53.5273 35.1601C52.7532 32.9581 52.6917 30.3309 53.1046 28.0158C53.4241 26.6813 53.8984 25.5827 54.476 24.3465C55.2673 22.4615 56.6362 20.8198 58.2484 19.5738C58.4844 19.1683 59.0398 19.0823 59.3347 18.694C60.915 17.6667 62.7729 17.0867 64.6014 16.5952Z" fill="#F6EAD5"/>
<path d="M157.146 45.0693C165.824 44.9809 174.517 45.0349 183.197 45.0202C183.644 45.03 184.151 44.9563 184.581 45.0841C184.839 45.6272 184.726 46.3645 184.748 46.9568C184.696 64.0841 184.738 81.1966 184.733 98.3214C184.718 98.6802 184.787 99.152 184.593 99.4666C184.187 99.2749 183.568 98.6728 183.172 98.3631C181.806 97.3088 180.545 96.2889 179.255 95.1387C178.016 93.9836 176.613 93.0325 175.345 91.9094C173.487 90.5159 171.577 88.7366 169.692 87.2276C166.605 84.7872 163.809 82.4156 160.769 79.9628C160.336 79.7687 160.201 79.3853 159.717 79.2845C159.112 78.6898 158.485 77.9967 157.751 77.5642C156.92 76.7974 156.099 76.0921 155.18 75.4334C154.298 74.8239 153.504 73.772 152.477 73.4501C140.889 73.4403 129.156 73.4354 117.578 73.4673C117.278 73.4722 116.988 73.4452 116.708 73.3862C116.684 70.8942 116.706 68.3751 116.698 65.8806C116.593 65.6004 116.394 65.4038 116.104 65.2908C113.774 65.276 111.414 65.2981 109.089 65.276C108.996 65.0917 108.952 64.8828 108.959 64.6518C108.962 63.2558 108.957 61.8697 108.93 60.4738C108.976 60.0314 109.306 59.8692 109.635 59.648C110.78 58.8149 112.09 58.5126 113.4 58.1194C116.922 58.1194 120.446 58.1169 123.968 58.1169C125.745 58.112 127.495 58.0948 129.22 57.6377C132.309 57.0454 135.214 55.9984 137.777 54.1503C138.107 54.0274 138.225 53.816 138.458 53.5826C139.355 53.0394 140.324 52.2727 141.039 51.4936C141.584 51.3117 141.965 50.6555 142.533 50.5302C142.951 50.1247 143.278 49.5619 143.86 49.3653C144.941 48.5051 145.779 48.2077 146.932 47.5614C148.557 46.7037 150.756 46.2146 152.477 45.5854C152.995 45.5903 153.558 45.5215 154.047 45.3495C155.18 45.3175 156.001 45.0153 157.146 45.0693Z" fill="#ED6E4E"/>
<path d="M0.95393 57.1462C1.14808 57.0823 1.35698 57.0577 1.57817 57.0749C12.8513 57.1412 24.2056 57.0749 35.4935 57.0995C36.3439 57.0921 37.2458 57.0036 38.0839 57.1462C37.5776 57.6844 36.7101 58.1636 36.2087 58.724C34.6923 60.024 33.0777 61.1251 31.5711 62.4497C26.8058 66.2099 22.645 69.4884 17.9337 73.3887C16.6533 74.298 15.54 75.4752 14.1981 76.2985C13.2667 77.1587 12.2099 77.955 11.1998 78.7217C10.4896 79.2256 9.87023 79.8719 9.12557 80.3045C8.15234 81.0688 7.29709 81.9363 6.29191 82.654C4.99183 83.9393 3.28868 84.9396 1.95665 86.1659C1.57817 86.2667 1.33486 86.8319 0.95393 86.6574C0.939185 76.8711 0.939185 66.9349 0.95393 57.1462Z" fill="#5F49C7"/>
<path d="M107.671 61.5207C107.843 62.521 107.77 63.6294 107.807 64.6517C107.824 64.8827 107.765 65.0892 107.634 65.276C107.153 65.2932 106.622 65.2907 106.14 65.276C106.123 64.3544 106.307 63.1403 106.937 62.3907C107.113 62.1646 107.33 61.4716 107.671 61.5207Z" fill="#F6C158"/>
<path d="M40.4383 64.1135C41.0232 64.288 41.1363 64.836 41.6376 65.1383C42.1709 65.448 42.2201 66.0255 42.8664 66.1386C44.3066 67.2273 45.6509 68.4119 47.0739 69.5178C47.6711 69.7489 48.0127 70.3829 48.5583 70.7393C49.0646 70.9408 49.3325 71.4176 49.7822 71.7297C50.4876 72.005 50.7456 72.7668 51.4682 73.0691C52.7019 74.0202 53.8398 75.0352 55.0932 76.0281C55.7322 76.4705 56.3883 77.0751 56.8651 77.687C57.8089 78.1122 58.5462 78.9257 59.4186 79.5474C60.6769 80.4224 61.746 81.4841 62.9404 82.4327C63.2058 82.8308 63.5081 83.2437 64.0021 83.3224C64.3683 83.6173 64.4592 83.9933 64.9852 84.0842C65.6118 84.5536 66.386 85.0034 66.8407 85.6473C66.9439 85.9987 66.9046 86.4067 66.9021 86.7704C66.8308 90.5404 66.9316 94.3055 66.9168 98.0756C66.8136 103.802 66.9709 110.054 66.8579 115.709C66.6932 115.837 66.4769 115.888 66.214 115.861C58.6051 115.884 50.9693 115.864 43.358 115.871C42.2004 115.866 41.0699 115.891 39.9173 115.81C39.2021 115.802 38.5828 116.695 38.0839 117.132C37.5211 117.316 37.2999 117.828 36.7715 118.044C36.2333 118.553 35.6361 118.825 35.1372 119.344C34.3827 119.85 33.6577 120.275 33.0457 120.941C32.0627 121.58 31.0157 122.563 30.1015 123.18C29.5805 123.664 28.9833 123.95 28.4991 124.505C28.1059 124.608 27.806 124.969 27.516 125.242C27.0466 125.456 26.6657 125.879 26.2872 126.225C25.9038 126.341 25.5868 126.69 25.3042 126.963C24.8004 127.083 24.5988 127.548 24.1884 127.759C22.328 129.091 20.7846 130.379 19.0126 131.713C17.3537 133.082 15.7735 134.102 14.004 135.567C13.2814 135.997 12.785 136.653 12.0747 137.071C8.51853 139.838 4.98445 142.581 1.41351 145.343C1.28817 145.478 1.1358 145.498 0.95393 145.397C0.939185 128.59 0.939185 111.556 0.95393 94.7455C1.30046 94.4235 1.61995 94.1163 1.93698 93.7649C2.26631 93.7083 2.45309 93.4994 2.67428 93.2733C3.56394 92.9317 4.05055 92.2632 4.7731 91.7127C5.43911 91.5628 5.68979 90.7887 6.38039 90.5896C6.7048 90.307 6.83997 89.931 7.23073 89.7049C8.76184 88.4932 10.6886 87.0187 12.146 85.8341C12.9521 85.4138 13.6206 84.4209 14.4906 84.1998C15.4368 83.0127 16.6803 82.3074 17.7863 81.3341C22.4804 77.687 26.6952 74.0792 31.4212 70.41C31.8415 70.1347 32.0012 69.6751 32.5075 69.5105C33.9133 68.3505 35.4468 67.1585 36.8944 66.0452C37.5285 65.4382 38.2264 64.9171 38.9219 64.3912C39.3201 63.9415 39.9296 63.5777 40.4383 64.1135Z" fill="#8E7AEC"/>
<path d="M85.742 66.2394C88.846 66.2246 91.9967 66.2222 95.1007 66.2394C95.14 71.4373 95.0884 76.6548 95.113 81.8552C95.1621 82.1427 95.0491 82.4819 94.7222 82.4917C91.66 82.4819 88.5536 82.5016 85.4963 82.4794C85.4569 77.3823 85.5233 72.2016 85.452 67.1094C85.4766 66.7235 85.3906 66.4876 85.742 66.2394Z" fill="#BF891F"/>
<path d="M96.2755 66.4581C96.477 66.3795 96.6982 66.3524 96.9341 66.3721C100.377 66.4778 103.813 66.3942 107.256 66.3721C109.795 66.4385 112.336 66.4262 114.875 66.3696C115.3 66.3967 115.634 66.3229 115.669 66.8636C115.615 68.5815 115.634 70.3068 115.637 72.0247C115.627 72.5211 115.774 72.9266 115.502 73.3862C113.034 73.5263 110.473 73.4747 107.993 73.4648C107.399 73.4919 106.733 73.2486 106.261 73.7204C104.784 75.1213 103.255 76.2567 101.68 77.5126C99.9693 78.734 98.0376 80.4912 96.3049 81.7422C96.2214 81.5529 96.1796 81.3465 96.1845 81.1179C96.1575 76.4484 96.241 71.7789 96.1427 67.1094C96.1206 66.8587 96.1649 66.6424 96.2755 66.4581Z" fill="#F6C158"/>
<path d="M107.121 74.5953C107.969 74.4651 108.856 74.5339 109.714 74.5019C119.63 74.5093 129.534 74.5044 139.451 74.5019C143.241 74.5437 147.116 74.4307 150.889 74.5953C149.677 75.5685 148.429 76.5639 147.249 77.6035C145.988 78.4833 144.806 79.4049 143.639 80.4076C142.565 81.1179 141.781 82.1304 140.68 82.8136C139.837 83.4969 139.117 84.1457 138.188 84.7306C136.241 86.2248 134.113 88.0361 132.078 89.6901C131.021 90.4372 130.112 91.376 129.021 92.0666C128.497 92.6294 127.866 92.9612 127.295 93.5388C126.241 94.2539 125.297 95.2861 124.214 95.9079C109.222 95.903 94.2304 95.9104 79.2388 95.903C76.1103 95.8809 72.4975 96.0554 69.4673 95.7826C69.4894 95.6892 69.5902 95.5909 69.7671 95.4852C71.0279 94.63 72.0601 93.497 73.3405 92.6614C75.4344 91.2433 77.3268 89.6238 79.3494 88.1123C80.3497 87.461 81.1533 86.6205 82.1462 85.9791C83.1465 85.2393 83.9968 84.4209 85.002 83.6886C85.4886 83.5018 86.0956 83.6542 86.6118 83.6271C89.5314 83.6198 92.5568 83.6173 95.4592 83.5927C96.1695 83.5141 96.4964 83.0275 97.0739 82.7276C98.9417 81.0589 100.832 79.6433 102.788 78.1048C104.326 76.9891 105.58 75.7627 107.121 74.5953Z" fill="#BF891F"/>
<path d="M152.723 74.9345C153.782 75.544 154.753 76.3919 155.62 77.2496C156.638 77.9918 157.626 78.8421 158.633 79.5991C159.029 79.7293 159.228 79.9456 159.452 80.2847C160.457 81.0392 161.578 82.0911 162.566 82.8161C164.706 84.7527 167.075 86.3059 169.167 88.2843C170.329 89.1691 171.396 90.1571 172.566 91.0222C174.389 92.4722 176.1 94.0303 177.899 95.5098C179.228 96.483 180.467 97.4882 181.723 98.5524C182.359 98.9357 182.531 99.469 183.065 99.9286C183.623 99.9507 183.829 100.408 184.313 100.646C184.684 100.922 184.697 101.334 184.726 101.762C184.761 102.991 184.687 104.22 184.706 105.448C184.726 105.692 184.679 105.901 184.569 106.075C183.797 105.463 183.055 104.822 182.205 104.229C181.46 103.59 180.755 102.873 179.929 102.342C177.272 100.243 175.218 98.3459 172.49 96.2471C170.823 94.9839 169.425 93.6002 167.771 92.3517C167.653 92.1699 167.488 91.7668 167.223 91.7791C166.584 91.4965 166.075 90.8698 165.503 90.4618C162.185 87.7707 159.884 85.6596 156.409 83.052C155.846 82.6662 155.399 82.0837 154.802 81.7421C154.352 81.3219 153.898 80.7591 153.325 80.5133C152.961 80.1029 152.423 79.9947 151.966 80.329C151.464 80.732 150.983 81.1695 150.523 81.6217C149.823 82.1206 149.056 82.6048 148.432 83.2167C147.839 83.4232 147.439 84.1162 146.893 84.3865C145.084 85.8144 143.59 87.1514 141.69 88.535C139.928 89.872 137.761 91.7619 136.011 93.1603C132.644 95.6794 129.506 98.4958 126.109 100.949C125.881 101.155 125.298 101.956 125.138 101.27C125.156 99.877 125.141 98.486 125.17 97.0925C125.178 96.5764 125.588 96.1856 125.969 95.8956C128.149 94.0745 130.435 92.5877 132.558 90.6855C133.271 90.103 134.052 89.5427 134.649 88.8496C135.396 88.5744 135.996 87.8444 136.667 87.4266C137.675 86.5148 138.835 85.8611 139.756 84.8781C141.106 83.9319 142.573 82.6908 143.875 81.6512C144.423 81.3661 144.755 80.8131 145.308 80.5748C146.291 79.6703 147.25 79.0387 148.166 78.036C149.376 77.4535 150.425 76.3157 151.494 75.5243C152.008 75.3498 152.072 74.7182 152.723 74.9345Z" fill="#F6C158"/>
<path d="M152.344 81.4767C152.936 81.2899 153.079 81.7544 153.511 82.0322C154.711 82.8579 155.768 83.8926 156.94 84.7528C160.184 87.5692 163.615 90.221 166.886 93.008C168.697 94.5636 170.602 95.9866 172.416 97.5349C174.075 99.0119 175.849 100.329 177.555 101.742C179.562 103.455 181.705 105.178 183.78 106.827C184.205 107.166 184.832 107.525 184.775 108.152C184.746 127.584 184.746 146.729 184.75 166.152C184.677 166.359 184.613 166.567 184.559 166.776C165.121 166.798 145.18 166.779 125.689 166.786C125.401 166.848 125.069 166.71 125.055 166.398C125.059 145.442 125.042 124.279 125.064 103.345C125.637 102.664 126.495 102.141 127.185 101.568C129.004 100.071 130.855 98.6777 132.681 97.2056C134.649 95.7384 136.421 94.0426 138.397 92.5877C139.643 91.5211 141.014 90.6486 142.214 89.5402C145.637 86.8245 148.93 84.217 152.344 81.4767Z" fill="#F6C158"/>
<path d="M33.3526 88.3138C33.5296 88.1762 33.7507 88.1197 34.0186 88.1418C37.9508 88.1418 41.8831 88.1369 45.8153 88.1443C46.3043 88.1762 46.3854 88.5694 46.4076 88.9823C46.4149 92.7499 46.4125 96.5199 46.41 100.287C46.4223 100.73 46.3191 101.094 45.8153 101.128C41.802 101.13 37.7862 101.128 33.7729 101.128C33.2346 101.133 33.1707 100.73 33.1781 100.287C33.1781 96.5199 33.1707 92.7499 33.1855 88.9823C33.1781 88.7243 33.2346 88.5031 33.3526 88.3138Z" fill="#170D0A"/>
<path d="M34.3335 89.2723C34.5105 89.1421 34.7341 89.0929 35.002 89.1249C38.3689 89.1396 41.7089 89.1175 45.0783 89.1249C45.297 89.1986 45.3879 89.3952 45.3486 89.7196C45.2921 92.9956 45.2896 96.2741 45.3658 99.5501C45.388 99.8721 45.2921 100.069 45.0783 100.145C41.6376 100.118 38.1969 100.13 34.7562 100.145C34.1738 100.13 34.2721 99.7369 34.2647 99.3044C34.3163 96.0284 34.2991 92.7499 34.2696 89.4738L34.3335 89.2723Z" fill="#F6EAD5"/>
<path d="M68.0202 97.1786C68.8582 96.8542 69.9887 97.1565 70.8833 97.1048C77.1921 97.068 83.5008 97.0606 89.8071 97.0852C100.699 97.0655 111.601 97.0606 122.494 97.0803C122.926 97.1122 123.46 97.0164 123.855 97.2056C124.094 100.479 123.961 103.878 123.946 107.169C123.917 116.673 123.973 126.174 123.924 135.677C123.912 136.292 123.978 136.946 123.865 137.55C123.504 137.648 123.219 137.14 122.948 136.965C122.351 136.739 122.032 136.024 121.378 135.81C121.152 135.606 120.977 135.324 120.641 135.319C120.301 135.051 120.267 134.689 119.79 134.599C119.476 134.603 119.321 134.058 119.053 133.95C118.419 133.864 118.35 133.298 117.812 132.994C117.227 132.844 117.023 132.338 116.595 131.986C115.922 131.885 115.789 131.15 115.121 130.927C114.814 130.888 114.639 130.401 114.383 130.261C113.686 130.185 113.437 129.265 112.776 129.175C112.489 128.921 112.194 128.472 111.793 128.437C111.42 128.11 111.058 127.575 110.564 127.454C110.272 127.196 109.987 126.764 109.579 126.717C109.281 126.454 109.006 126.034 108.598 125.98C108.311 125.741 108.008 125.252 107.615 125.242C107.232 124.852 107.001 124.414 106.386 124.259C106.099 124.023 105.796 123.529 105.403 123.522C105.03 123.217 104.666 122.608 104.174 122.539C103.887 122.298 103.587 121.816 103.191 121.802C102.732 121.403 102.307 120.755 101.717 120.573C101.429 120.329 101.129 119.855 100.734 119.836C100.36 119.531 99.9989 118.921 99.5049 118.852C99.1289 118.526 98.7726 117.98 98.2761 117.869C97.9665 117.597 97.7158 117.201 97.2931 117.132C97.0055 116.896 96.7032 116.395 96.31 116.395C96.0569 116.144 95.8529 115.893 95.4597 115.918C86.3517 115.906 77.1405 115.94 68.0448 115.903C67.885 115.068 67.9809 114.163 67.9637 113.313C67.9514 108.317 67.9981 103.318 67.9096 98.3214C67.9219 97.9626 67.8334 97.5005 68.0202 97.1786Z" fill="#BF891F"/>
<path d="M147.561 110.637C151.164 110.565 154.772 110.536 158.375 110.637C158.985 110.654 159.491 110.511 159.982 110.968C160.071 114.94 160.009 118.924 160.014 122.898C160.09 123.569 159.432 123.809 158.867 123.714C155.183 123.701 151.489 123.773 147.807 123.709C147.318 123.736 146.829 123.728 146.728 123.143C146.723 119.211 146.694 115.277 146.745 111.347C146.763 110.89 147.129 110.632 147.561 110.637Z" fill="#170D0A"/>
<path d="M147.91 111.698C151.525 111.698 155.16 111.684 158.773 111.696C159.011 112.001 158.881 112.453 158.903 112.821C158.9 116.024 158.854 119.204 158.893 122.406L158.812 122.595L158.62 122.674C155.054 122.645 151.611 122.662 148.052 122.681L147.868 122.595L147.797 122.406C147.802 119.049 147.812 115.687 147.745 112.33C147.718 112.077 147.772 111.868 147.91 111.698Z" fill="#F6EAD5"/>
<path d="M41.9473 117.09C42.6306 116.926 43.3924 117.031 44.0953 117.014C46.6414 117.117 49.1679 117.061 51.714 117.061C55.7273 117.09 59.7431 117.088 63.7564 117.061C69.0845 117.053 74.4004 117.112 79.731 117.09C84.8871 117.007 90.0605 117.12 95.2141 117.051C95.7106 117.041 95.9318 117.39 96.3373 117.604C97.1163 118.041 97.6668 118.717 98.3599 119.27C100.456 120.909 102.973 122.765 105.109 124.532C108.399 126.992 111.221 129.125 114.384 131.782C115.598 132.77 117.018 133.603 118.213 134.554C119.267 135.471 120.343 136.366 121.427 137.248C121.838 137.572 122.359 137.801 122.627 138.268C111.781 138.356 100.899 138.241 90.0531 138.307C82.5573 138.275 75.0492 138.359 67.5559 138.268C67.1086 137.791 66.4917 137.55 66.0297 137.078C61.3086 132.962 56.6317 129.496 51.8934 125.429C49.5095 123.586 47.4082 121.838 45.13 119.877C44.1518 119.219 43.2745 118.486 42.3627 117.749C42.2079 117.547 41.854 117.388 41.9473 117.09Z" fill="#ED6E4E"/>
<path d="M40.4085 117.538C41.7332 118.405 42.9546 119.568 44.1343 120.634C44.6922 120.858 44.9945 121.423 45.5155 121.743C46.4125 122.342 47.1818 122.979 47.9731 123.706C49.6861 124.913 50.6962 126.147 52.4608 127.312C52.9892 127.83 53.5716 128.351 54.1934 128.752C55.1814 129.447 56.1964 130.612 57.2532 131.121C57.9388 131.765 58.5262 132.46 59.1971 133.109C59.6469 133.126 59.7796 133.512 60.2023 133.579C61.1288 134.581 62.1881 135.358 63.2768 136.157C64.1026 136.953 65.1987 137.533 65.9802 138.364C66.2678 138.668 66.7593 138.912 66.8011 139.364C66.8035 158.278 66.8109 177.224 66.7986 196.135C66.7273 196.398 66.5307 196.511 66.2137 196.477C48.1083 196.484 30.0054 196.477 11.9 196.479C10.3295 196.376 8.80579 196.017 7.43934 195.216C6.43909 194.71 5.78044 193.928 4.88586 193.319C4.44103 192.609 4.10433 192.117 3.40391 191.608C1.73272 189.586 0.973305 186.695 0.995424 184.093C0.970847 171.888 0.992966 159.681 0.985593 147.474C0.899576 146.751 1.84577 146.395 2.31517 145.999C2.83865 145.513 3.45797 145.203 3.93476 144.67C7.03875 142.628 9.95351 140.155 12.883 137.865C16.2598 135.301 19.5924 132.655 22.9593 130.086C23.559 129.828 23.8072 129.192 24.4093 128.99C28.0491 126.37 30.9638 123.787 34.5249 121.207C35.7906 120.111 37.0121 119.263 38.381 118.15C39.0519 117.697 39.5213 117.105 40.4085 117.538Z" fill="#BB563D"/>
<path d="M146.935 133.333C147.581 133.114 148.358 133.242 149.036 133.193C152.312 133.274 155.591 133.239 158.867 133.188C159.422 133.19 159.945 133.284 159.953 133.957C159.943 137.884 159.97 141.829 159.943 145.754C159.909 146.206 159.55 146.479 159.112 146.464C155.274 146.469 151.398 146.491 147.561 146.434C147.021 146.464 146.714 146.014 146.721 145.508C146.718 141.657 146.721 137.808 146.721 133.957C146.721 133.733 146.792 133.525 146.935 133.333Z" fill="#170D0A"/>
<path d="M147.859 134.471L148.053 134.358C151.57 134.331 155.104 134.348 158.621 134.348C158.852 134.419 158.948 134.616 158.909 134.94C158.919 138.297 158.877 141.662 158.923 145.016C158.874 145.252 158.69 145.356 158.375 145.321C155.262 145.292 152.15 145.311 149.036 145.314C148.67 145.277 148.196 145.392 147.871 145.206L147.805 145.016C147.803 141.576 147.773 138.135 147.783 134.694L147.859 134.471Z" fill="#F6EAD5"/>
<path d="M68.0468 139.477C69.0741 139.418 70.0989 139.482 71.1287 139.46C87.8381 139.46 104.555 139.42 121.264 139.44C122.115 139.506 123.039 139.293 123.867 139.467C124.142 139.905 123.958 140.583 123.987 141.084C123.889 149.524 124.017 157.951 123.916 166.398L123.855 166.779C123.648 166.966 123.471 167.214 123.231 167.354C122.569 167.474 122.341 168.295 121.756 168.536C121.225 168.76 120.817 169.256 120.281 169.44C119.763 169.556 119.539 170.468 118.92 170.443C118.347 171.112 117.585 171.638 116.831 172.041C116.425 172.611 115.899 172.834 115.366 173.252C114.695 173.363 114.68 174.066 114.002 174.13C113.631 174.437 113.577 174.82 113.019 174.867C112.623 175.408 112.129 175.245 111.854 175.906C111.242 176.41 110.556 177.03 109.824 177.325C109.379 178.047 108.389 178.435 107.765 178.932C107.637 179.128 107.421 179.246 107.121 179.288C106.752 179.603 106.691 179.969 106.138 180.028C105.843 180.281 105.563 180.728 105.155 180.763C104.737 181.171 104.425 181.706 103.855 181.933C102.087 183.235 99.9272 184.916 98.1626 186.253C97.1992 186.912 96.2064 187.61 95.3462 188.404C94.459 188.853 93.7389 189.632 92.9303 190.156C92.3356 190.638 91.6843 191.026 91.1682 191.598C90.7774 191.734 90.4801 192.053 90.1876 192.336C89.7575 192.518 89.3913 192.849 89.0129 193.117C88.1134 193.825 87.0566 194.479 86.2529 195.285C85.4468 195.685 84.6628 196.784 83.6626 196.639C78.8309 196.617 73.9943 196.578 69.1625 196.649C68.7693 196.634 68.4179 196.681 68.0443 196.516C67.9681 196.238 67.9436 195.948 67.9657 195.644C67.9731 177.138 67.946 158.61 67.978 140.101C67.9804 139.887 68.0025 139.681 68.0468 139.477Z" fill="#ED6E4E"/>
<path d="M90.2986 155.481C94.0661 155.479 97.8361 155.481 101.604 155.481C102.041 155.459 102.437 155.557 102.442 156.076C102.447 159.927 102.447 163.776 102.442 167.627C102.432 168.047 102.294 168.374 101.849 168.46C98.0868 168.475 94.3094 168.47 90.5443 168.462C90.1781 168.443 89.6104 168.583 89.4753 168.118C89.4335 164.115 89.4679 160.082 89.458 156.076C89.4507 155.488 89.8193 155.461 90.2986 155.481Z" fill="#170D0A"/>
<path d="M90.3816 156.631C90.5488 156.494 90.7675 156.437 91.0354 156.464C94.395 156.486 97.7521 156.513 101.112 156.464C101.38 156.535 101.498 156.734 101.461 157.059C101.463 160.418 101.461 163.776 101.461 167.135C101.389 167.403 101.19 167.521 100.866 167.487C97.7521 167.413 94.6407 167.428 91.5269 167.484C91.173 167.452 90.6569 167.565 90.3693 167.332L90.3202 167.135C90.4038 163.643 90.3153 159.969 90.3816 156.631Z" fill="#F6EAD5"/>
<path d="M126.283 167.978C126.721 167.784 127.19 167.818 127.655 167.828C132.071 167.877 136.51 167.838 140.926 167.831C150.444 167.828 159.911 167.823 169.434 167.831C174.433 167.772 179.425 167.958 184.426 167.789L184.618 167.882L184.687 168.118C184.642 172.129 184.691 176.147 184.672 180.161C184.655 182.333 184.778 184.533 184.559 186.695C184.303 187.379 184.17 188.455 183.821 189.153C183.396 189.92 182.63 190.92 182.167 191.711C181.703 192.358 181.305 193.139 180.536 193.481C180.221 193.739 179.931 194.014 179.646 194.304C179.363 194.39 179.201 194.555 179.154 194.796C177.908 195.705 176.591 196.037 175.087 196.317C174.679 196.29 174.522 196.612 174.104 196.521C169.248 196.516 164.318 196.536 159.471 196.514C158.633 195.703 157.842 194.83 156.888 194.181C155.502 192.729 153.757 191.566 152.339 190.129C150.663 188.546 148.699 187.189 147.05 185.597C146.37 184.852 145.504 184.353 144.824 183.626C140.393 179.789 135.89 176.015 131.494 172.154C129.663 171.021 128.318 168.959 126.283 168.008V167.978Z" fill="#4CC0A3"/>
<path d="M124.214 168.145C124.841 167.89 125.15 168.379 125.549 168.747C126.121 169.165 126.573 169.703 127.144 170.131C128.065 170.829 128.869 171.748 129.876 172.286C131.614 174.125 133.59 175.611 135.497 177.258C135.9 177.492 136.183 177.978 136.635 178.062C137.402 178.804 138.065 179.578 138.96 180.17C140.479 181.574 142.383 183.147 143.954 184.493C144.755 185.11 145.372 185.87 146.225 186.415C149.412 189.504 152.944 192.112 156.203 195.103C156.697 195.29 156.994 195.759 157.402 196.125C157.522 196.202 157.564 196.332 157.525 196.514C152.796 196.632 148.117 196.548 143.384 196.56C136.746 196.624 130.115 196.514 123.477 196.587C116.35 196.565 109.223 196.592 102.095 196.578C97.9199 196.551 93.7272 196.669 89.5615 196.524C88.6153 196.516 87.6617 196.536 86.718 196.514C86.632 196.091 87.0448 196 87.3373 195.87C87.819 195.391 88.3646 195.243 88.8119 194.648C89.8392 193.948 90.7043 193.142 91.7733 192.436C93.066 191.453 94.4571 190.571 95.7055 189.554C96.1283 189.362 96.4625 188.944 96.7992 188.63C97.4308 188.384 97.9567 187.777 98.5146 187.396C100.412 185.806 102.845 184.216 104.799 182.667C105.384 182.404 105.659 181.783 106.256 181.593C106.74 181.141 107.296 180.932 107.738 180.394C109.449 179.271 110.768 178.03 112.558 176.86C115.283 174.798 117.893 172.67 120.741 170.765C121.897 169.959 122.956 168.789 124.214 168.145Z" fill="#3FAE92"/>
<path d="M39.7324 57.3096L1.02466 88.1836V93.6211L39.7324 62.7471L66.92 84.2207V79.3361L39.7324 57.3096Z" fill="#5F49C7" stroke="black" stroke-width="1.52285"/>
</svg>
