<svg width="42" height="32" viewBox="0 0 42 32" fill="none" xmlns="http://www.w3.org/2000/svg">
<mask id="path-1-outside-1_1_1388" maskUnits="userSpaceOnUse" x="20.6222" y="1.3224" width="6" height="6" fill="black">
<rect fill="white" x="20.6222" y="1.3224" width="6" height="6"/>
<path fill-rule="evenodd" clip-rule="evenodd" d="M23.2853 2.32397C24.1526 2.318 25.0206 2.33136 25.8878 2.32593C25.8802 2.83718 25.8772 3.34929 25.881 3.86108L23.9289 3.86694C23.1664 4.48973 22.3928 5.09574 21.6222 5.70874C21.6304 4.57844 21.6229 3.45644 21.6261 2.32886C22.1781 2.31692 22.7318 2.3332 23.2843 2.32397H23.2853Z"/>
</mask>
<path fill-rule="evenodd" clip-rule="evenodd" d="M23.2853 2.32397C24.1526 2.318 25.0206 2.33136 25.8878 2.32593C25.8802 2.83718 25.8772 3.34929 25.881 3.86108L23.9289 3.86694C23.1664 4.48973 22.3928 5.09574 21.6222 5.70874C21.6304 4.57844 21.6229 3.45644 21.6261 2.32886C22.1781 2.31692 22.7318 2.3332 23.2843 2.32397H23.2853Z" fill="#8E7AEC"/>
<path d="M23.2853 2.32397V2.82399L23.2887 2.82396L23.2853 2.32397ZM25.8878 2.32593L26.3878 2.33336L26.3954 1.82274L25.8847 1.82594L25.8878 2.32593ZM25.881 3.86108L25.8825 4.36108L26.3847 4.35957L26.381 3.85737L25.881 3.86108ZM23.9289 3.86694L23.9274 3.36695L23.75 3.36748L23.6126 3.47971L23.9289 3.86694ZM21.6222 5.70874L21.1222 5.70514L21.1147 6.75137L21.9335 6.10003L21.6222 5.70874ZM21.6261 2.32886L21.6153 1.82897L21.1275 1.83953L21.1261 2.32741L21.6261 2.32886ZM23.2843 2.32397V1.8239L23.276 1.82404L23.2843 2.32397ZM23.2853 2.32397L23.2887 2.82396C23.7191 2.821 24.1502 2.82283 24.5844 2.82474C25.0177 2.82666 25.4542 2.82865 25.891 2.82592L25.8878 2.32593L25.8847 1.82594C25.4542 1.82863 25.0231 1.82667 24.5888 1.82475C24.1554 1.82284 23.7188 1.82098 23.2819 1.82399L23.2853 2.32397ZM25.8878 2.32593L25.3879 2.31849C25.3802 2.8327 25.3772 3.34859 25.381 3.86479L25.881 3.86108L26.381 3.85737C26.3772 3.34998 26.3802 2.84167 26.3878 2.33336L25.8878 2.32593ZM25.881 3.86108L25.8795 3.36109L23.9274 3.36695L23.9289 3.86694L23.9304 4.36694L25.8825 4.36108L25.881 3.86108ZM23.9289 3.86694L23.6126 3.47971C22.8534 4.09977 22.0854 4.70135 21.311 5.31745L21.6222 5.70874L21.9335 6.10003C22.7002 5.49013 23.4794 4.87968 24.2452 4.25418L23.9289 3.86694ZM21.6222 5.70874L22.1222 5.71234C22.1303 4.5827 22.1229 3.44943 22.1261 2.3303L21.6261 2.32886L21.1261 2.32741C21.1228 3.46346 21.1304 4.57417 21.1222 5.70514L21.6222 5.70874ZM21.6261 2.32886L21.6369 2.82874C21.9053 2.82293 22.1754 2.82396 22.4524 2.82539C22.7274 2.82681 23.0098 2.82863 23.2927 2.8239L23.2843 2.32397L23.276 1.82404C23.0063 1.82855 22.7356 1.82684 22.4576 1.82541C22.1816 1.82398 21.8989 1.82284 21.6153 1.82897L21.6261 2.32886ZM23.2843 2.32397V2.82397H23.2853V2.32397V1.82397H23.2843V2.32397Z" fill="black" mask="url(#path-1-outside-1_1_1388)"/>
<mask id="path-3-outside-2_1_1388" maskUnits="userSpaceOnUse" x="-0.215672" y="0.740242" width="16" height="20" fill="black">
<rect fill="white" x="-0.215672" y="0.740242" width="16" height="20"/>
<path d="M9.28628 1.74024C9.49087 1.87375 9.65977 2.03099 9.85073 2.18458C9.9255 2.24309 9.99894 2.30641 10.0705 2.36817C10.8221 2.94047 11.542 3.55485 12.2834 4.13966C12.8633 4.63153 13.4679 5.093 14.0548 5.57618C14.4265 5.91523 14.8444 6.19721 15.2199 6.53028C15.2112 8.73582 15.2219 10.9419 15.2209 13.1475C15.2168 13.147 15.2122 13.146 15.2082 13.1455C13.2107 13.1455 11.2124 13.151 9.21499 13.1445C9.02661 13.2911 8.84381 13.4458 8.65542 13.5918C7.90936 14.1461 7.1887 14.7334 6.44644 15.292C4.72541 16.6098 3.01457 17.9451 1.29898 19.2705C1.16544 19.3297 1.02745 19.3818 0.89175 19.4356L0.892727 19.4365C1.02849 19.3828 1.16538 19.3307 1.29898 19.2715C1.13225 19.4045 0.966575 19.5375 0.791164 19.6592C0.779752 16.0319 0.791394 12.4046 0.784328 8.77735C0.789212 8.69529 0.778416 8.59702 0.812649 8.52149C0.873518 8.44059 0.96328 8.37779 1.04312 8.31641C1.67512 7.84688 2.26713 7.32859 2.8937 6.85255C3.72951 6.18466 4.56072 5.51153 5.39761 4.84473C6.00253 4.36579 6.58961 3.86085 7.20913 3.40137L7.21011 3.4004C7.722 2.97111 8.25648 2.56752 8.77163 2.14259L8.77261 2.14161C8.94402 2.0076 9.11214 1.8699 9.28628 1.74024ZM0.842922 18.9404V18.9395V18.9404ZM10.1896 13.0772C9.93267 13.0752 9.67565 13.0759 9.42105 13.1035C9.42317 13.1037 9.42576 13.1034 9.42788 13.1035C9.68044 13.0765 9.93486 13.0752 10.1896 13.0772ZM15.132 11.5479C15.1325 12.0472 15.1445 12.5456 15.1222 13.0449C14.7857 13.0764 14.4501 13.0832 14.1125 13.0762C13.4965 13.0784 12.8802 13.0791 12.2648 13.0791C11.8292 13.0828 11.3957 13.0401 10.9601 13.0684C10.705 13.0837 10.4486 13.0792 10.1925 13.0772C10.4489 13.0791 10.7056 13.0848 10.9611 13.0693C11.1791 13.0552 11.3962 13.0587 11.6134 13.0654C11.8305 13.0721 12.0481 13.082 12.2658 13.0801C12.8811 13.0801 13.4975 13.0793 14.1134 13.0772C14.4515 13.0842 14.7863 13.0774 15.1232 13.0459C15.1455 12.5465 15.1325 12.0483 15.132 11.5488C15.1298 10.0097 15.1334 8.46786 15.1291 6.92872V6.92774C15.1334 8.4672 15.1298 10.0084 15.132 11.5479Z"/>
</mask>
<path d="M9.28628 1.74024C9.49087 1.87375 9.65977 2.03099 9.85073 2.18458C9.9255 2.24309 9.99894 2.30641 10.0705 2.36817C10.8221 2.94047 11.542 3.55485 12.2834 4.13966C12.8633 4.63153 13.4679 5.093 14.0548 5.57618C14.4265 5.91523 14.8444 6.19721 15.2199 6.53028C15.2112 8.73582 15.2219 10.9419 15.2209 13.1475C15.2168 13.147 15.2122 13.146 15.2082 13.1455C13.2107 13.1455 11.2124 13.151 9.21499 13.1445C9.02661 13.2911 8.84381 13.4458 8.65542 13.5918C7.90936 14.1461 7.1887 14.7334 6.44644 15.292C4.72541 16.6098 3.01457 17.9451 1.29898 19.2705C1.16544 19.3297 1.02745 19.3818 0.89175 19.4356L0.892727 19.4365C1.02849 19.3828 1.16538 19.3307 1.29898 19.2715C1.13225 19.4045 0.966575 19.5375 0.791164 19.6592C0.779752 16.0319 0.791394 12.4046 0.784328 8.77735C0.789212 8.69529 0.778416 8.59702 0.812649 8.52149C0.873518 8.44059 0.96328 8.37779 1.04312 8.31641C1.67512 7.84688 2.26713 7.32859 2.8937 6.85255C3.72951 6.18466 4.56072 5.51153 5.39761 4.84473C6.00253 4.36579 6.58961 3.86085 7.20913 3.40137L7.21011 3.4004C7.722 2.97111 8.25648 2.56752 8.77163 2.14259L8.77261 2.14161C8.94402 2.0076 9.11214 1.8699 9.28628 1.74024ZM0.842922 18.9404V18.9395V18.9404ZM10.1896 13.0772C9.93267 13.0752 9.67565 13.0759 9.42105 13.1035C9.42317 13.1037 9.42576 13.1034 9.42788 13.1035C9.68044 13.0765 9.93486 13.0752 10.1896 13.0772ZM15.132 11.5479C15.1325 12.0472 15.1445 12.5456 15.1222 13.0449C14.7857 13.0764 14.4501 13.0832 14.1125 13.0762C13.4965 13.0784 12.8802 13.0791 12.2648 13.0791C11.8292 13.0828 11.3957 13.0401 10.9601 13.0684C10.705 13.0837 10.4486 13.0792 10.1925 13.0772C10.4489 13.0791 10.7056 13.0848 10.9611 13.0693C11.1791 13.0552 11.3962 13.0587 11.6134 13.0654C11.8305 13.0721 12.0481 13.082 12.2658 13.0801C12.8811 13.0801 13.4975 13.0793 14.1134 13.0772C14.4515 13.0842 14.7863 13.0774 15.1232 13.0459C15.1455 12.5465 15.1325 12.0483 15.132 11.5488C15.1298 10.0097 15.1334 8.46786 15.1291 6.92872V6.92774C15.1334 8.4672 15.1298 10.0084 15.132 11.5479Z" fill="#7BB0F2"/>
<path d="M9.28628 1.74024L9.55953 1.32151L9.26744 1.1309L8.98768 1.3392L9.28628 1.74024ZM9.85073 2.18458L9.53734 2.57423L9.54258 2.57833L9.85073 2.18458ZM10.0705 2.36817L9.74365 2.74658L9.75531 2.75665L9.76757 2.76599L10.0705 2.36817ZM12.2834 4.13966L12.6068 3.75834L12.6 3.7526L12.593 3.7471L12.2834 4.13966ZM14.0548 5.57618L14.3918 5.20679L14.3824 5.19822L14.3726 5.19014L14.0548 5.57618ZM15.2199 6.53028L15.7199 6.53225L15.7208 6.30623L15.5517 6.15623L15.2199 6.53028ZM15.2209 13.1475L15.1625 13.6441L15.7206 13.7096L15.7209 13.1477L15.2209 13.1475ZM15.2082 13.1455L15.2649 12.6487L15.2366 12.6455H15.2082L15.2082 13.1455ZM9.21499 13.1445L9.21662 12.6445L9.04409 12.644L8.90793 12.7499L9.21499 13.1445ZM8.65542 13.5918L8.95366 13.9932L8.96178 13.987L8.65542 13.5918ZM6.44644 15.292L6.14577 14.8925L6.14246 14.895L6.44644 15.292ZM1.29898 19.2705L1.50147 19.7277L1.55679 19.7032L1.60466 19.6662L1.29898 19.2705ZM0.89175 19.4356L0.707659 18.9707L-1.19209e-07 19.2509L0.538197 19.7891L0.89175 19.4356ZM0.892727 19.4365L0.539174 19.7901L0.77143 20.0223L1.07682 19.9014L0.892727 19.4365ZM1.29898 19.2715L1.61086 19.6623L1.09647 18.8143L1.29898 19.2715ZM0.791164 19.6592L0.291167 19.6608L0.294161 20.6124L1.07611 20.07L0.791164 19.6592ZM0.784328 8.77735L0.285211 8.74765L0.284299 8.76297L0.284329 8.77833L0.784328 8.77735ZM0.812649 8.52149L0.413114 8.22087L0.379987 8.2649L0.357241 8.31508L0.812649 8.52149ZM1.04312 8.31641L0.744894 7.915L0.738392 7.92L1.04312 8.31641ZM2.8937 6.85255L3.19627 7.25079L3.20583 7.24315L2.8937 6.85255ZM5.39761 4.84473L5.08724 4.45272L5.08604 4.45368L5.39761 4.84473ZM7.20913 3.40137L7.50698 3.80298L7.53661 3.78101L7.56269 3.75493L7.20913 3.40137ZM7.21011 3.4004L6.88882 3.01729L6.87204 3.03136L6.85656 3.04684L7.21011 3.4004ZM8.77163 2.14259L9.08979 2.5283L9.10826 2.51307L9.12519 2.49614L8.77163 2.14259ZM8.77261 2.14161L8.46465 1.7477L8.44062 1.76649L8.41906 1.78806L8.77261 2.14161ZM10.1896 13.0772L10.1858 13.5771L10.1935 12.5772L10.1896 13.0772ZM9.42105 13.1035L9.36704 12.6064L9.38142 13.602L9.42105 13.1035ZM9.42788 13.1035L9.38902 13.602L9.43509 13.6056L9.48105 13.6007L9.42788 13.1035ZM15.132 11.5479L15.632 11.5473L15.632 11.5472L15.132 11.5479ZM15.1222 13.0449L15.1687 13.5428L15.6023 13.5023L15.6217 13.0672L15.1222 13.0449ZM14.1125 13.0762L14.1229 12.5761L14.1107 12.5762L14.1125 13.0762ZM12.2648 13.0791V12.5791L12.2605 12.5791L12.2648 13.0791ZM10.9601 13.0684L10.9902 13.5675L10.9925 13.5673L10.9601 13.0684ZM10.1925 13.0772L10.1964 12.5772L10.1886 13.5771L10.1925 13.0772ZM10.9611 13.0693L10.9913 13.5684L10.9934 13.5683L10.9611 13.0693ZM11.6134 13.0654L11.5979 13.5652L11.598 13.5652L11.6134 13.0654ZM12.2658 13.0801V12.5801L12.2615 12.5801L12.2658 13.0801ZM14.1134 13.0772L14.1239 12.5771L14.1117 12.5772L14.1134 13.0772ZM15.1232 13.0459L15.1698 13.5437L15.6033 13.5032L15.6227 13.0682L15.1232 13.0459ZM15.132 11.5488L15.632 11.5483L15.632 11.5481L15.132 11.5488ZM15.1291 6.92872H14.6291L14.6291 6.93013L15.1291 6.92872ZM15.1291 6.92774L15.6291 6.92633L14.6291 6.92774H15.1291ZM9.28628 1.74024L9.01303 2.15897C9.19044 2.27474 9.31012 2.39142 9.53737 2.57419L9.85073 2.18458L10.1641 1.79496C10.0094 1.67056 9.7913 1.47276 9.55953 1.32151L9.28628 1.74024ZM9.85073 2.18458L9.54258 2.57833C9.60633 2.62822 9.67085 2.68371 9.74365 2.74658L10.0705 2.36817L10.3973 1.98976C10.327 1.9291 10.2447 1.85795 10.1589 1.79083L9.85073 2.18458ZM10.0705 2.36817L9.76757 2.76599C10.5216 3.34013 11.2053 3.92604 11.9737 4.53221L12.2834 4.13966L12.593 3.7471C11.8788 3.18366 11.1226 2.54082 10.3734 1.97036L10.0705 2.36817ZM12.2834 4.13966L11.9599 4.52097C12.5362 5.0097 13.1765 5.50081 13.7371 5.96222L14.0548 5.57618L14.3726 5.19014C13.7592 4.6852 13.1904 4.25335 12.6068 3.75834L12.2834 4.13966ZM14.0548 5.57618L13.7179 5.94557C13.9197 6.12974 14.1315 6.29594 14.3282 6.44956C14.5295 6.60678 14.7144 6.75029 14.8881 6.90433L15.2199 6.53028L15.5517 6.15623C15.3498 5.9772 15.138 5.81319 14.9437 5.66139C14.7447 5.50599 14.5616 5.36168 14.3918 5.20679L14.0548 5.57618ZM15.2199 6.53028L14.7199 6.52831C14.7112 8.73436 14.7219 10.9459 14.7209 13.1472L15.2209 13.1475L15.7209 13.1477C15.7219 10.9379 15.7112 8.73729 15.7199 6.53225L15.2199 6.53028ZM15.2209 13.1475L15.2792 12.6509C15.2874 12.6518 15.2936 12.6528 15.2963 12.6532C15.2988 12.6536 15.3008 12.654 15.299 12.6537C15.2984 12.6536 15.294 12.6528 15.2891 12.652C15.284 12.6512 15.2754 12.6499 15.2649 12.6487L15.2082 13.1455L15.1514 13.6423C15.1429 13.6413 15.1364 13.6403 15.1335 13.6399C15.1306 13.6394 15.1285 13.639 15.13 13.6393C15.1303 13.6393 15.1345 13.6401 15.1392 13.6408C15.144 13.6416 15.1523 13.6429 15.1625 13.6441L15.2209 13.1475ZM15.2082 13.1455L15.2082 12.6455C13.2088 12.6455 11.213 12.651 9.21662 12.6445L9.21499 13.1445L9.21336 13.6445C11.2118 13.651 13.2126 13.6455 15.2082 13.6455L15.2082 13.1455ZM9.21499 13.1445L8.90793 12.7499C8.80908 12.8269 8.71229 12.9054 8.62032 12.98C8.52698 13.0557 8.43829 13.1275 8.34906 13.1967L8.65542 13.5918L8.96178 13.987C9.06093 13.9101 9.15784 13.8316 9.2501 13.7568C9.34371 13.6809 9.43252 13.6088 9.52206 13.5391L9.21499 13.1445ZM8.65542 13.5918L8.35724 13.1904C7.97882 13.4716 7.6078 13.7604 7.24179 14.0462C6.87437 14.3331 6.51258 14.6165 6.14578 14.8925L6.44644 15.292L6.74709 15.6915C7.12256 15.4089 7.49223 15.1194 7.85722 14.8344C8.22362 14.5483 8.58596 14.2663 8.9536 13.9932L8.65542 13.5918ZM6.44644 15.292L6.14246 14.895C4.42053 16.2135 2.70604 17.5516 0.993292 18.8748L1.29898 19.2705L1.60466 19.6662C3.3231 18.3386 5.03029 17.0061 6.75041 15.689L6.44644 15.292ZM1.29898 19.2705L1.09649 18.8134C0.975049 18.8671 0.853261 18.913 0.707659 18.9707L0.89175 19.4356L1.07584 19.9004C1.20163 19.8506 1.35583 19.7922 1.50147 19.7277L1.29898 19.2705ZM0.89175 19.4356L0.538197 19.7891L0.539174 19.7901L0.892727 19.4365L1.24628 19.083L1.2453 19.082L0.89175 19.4356ZM0.892727 19.4365L1.07682 19.9014C1.20408 19.851 1.35588 19.7931 1.50149 19.7286L1.29898 19.2715L1.09647 18.8143C0.974883 18.8682 0.852907 18.9145 0.708636 18.9717L0.892727 19.4365ZM1.29898 19.2715L0.987094 18.8807C0.817095 19.0164 0.665162 19.1381 0.506214 19.2483L0.791164 19.6592L1.07611 20.07C1.26799 19.937 1.44741 19.7927 1.61086 19.6623L1.29898 19.2715ZM0.791164 19.6592L1.29116 19.6576C1.27974 16.0279 1.29141 12.41 1.28433 8.77638L0.784328 8.77735L0.284329 8.77833C0.291382 12.3993 0.279763 16.036 0.291167 19.6608L0.791164 19.6592ZM0.784328 8.77735L1.28345 8.80705C1.28552 8.77212 1.28578 8.73834 1.28598 8.71815C1.28621 8.69374 1.28636 8.68194 1.28687 8.67169C1.28733 8.66236 1.28772 8.66406 1.28624 8.67211C1.28471 8.68046 1.28022 8.70106 1.26806 8.7279L0.812649 8.52149L0.357241 8.31508C0.300827 8.43955 0.291244 8.5586 0.288094 8.62226C0.28641 8.65628 0.286208 8.68915 0.286022 8.7086C0.285796 8.73228 0.285574 8.74155 0.285211 8.74765L0.784328 8.77735ZM0.812649 8.52149L1.21218 8.82211C1.21041 8.82447 1.21614 8.81642 1.24159 8.79514C1.25368 8.78502 1.26789 8.77381 1.28613 8.75983C1.29526 8.75283 1.30449 8.74583 1.31499 8.73787C1.32511 8.73019 1.33643 8.7216 1.34784 8.71283L1.04312 8.31641L0.738392 7.92C0.690088 7.95713 0.525949 8.07091 0.413114 8.22087L0.812649 8.52149ZM1.04312 8.31641L1.3413 8.71777C1.66692 8.47585 1.98054 8.22265 2.28551 7.97517C2.59294 7.72569 2.89065 7.4828 3.19618 7.25067L2.8937 6.85255L2.59122 6.45442C2.27018 6.69834 1.9586 6.95261 1.65538 7.19867C1.3497 7.44673 1.05131 7.68744 0.744934 7.91506L1.04312 8.31641ZM2.8937 6.85255L3.20583 7.24315C4.04809 6.57011 4.8696 5.90473 5.70918 5.23579L5.39761 4.84473L5.08604 4.45368C4.25184 5.11833 3.41092 5.79921 2.58157 6.46194L2.8937 6.85255ZM5.39761 4.84473L5.70798 5.23674C6.33679 4.73889 6.89325 4.25815 7.50698 3.80298L7.20913 3.40137L6.91128 2.99977C6.28596 3.46355 5.66828 3.99269 5.08724 4.45273L5.39761 4.84473ZM7.20913 3.40137L7.56269 3.75493L7.56366 3.75395L7.21011 3.4004L6.85656 3.04684L6.85558 3.04782L7.20913 3.40137ZM7.21011 3.4004L7.5314 3.78351C7.78145 3.5738 8.03811 3.36947 8.30023 3.16169C8.56077 2.95518 8.8276 2.74458 9.08979 2.5283L8.77163 2.14259L8.45347 1.75687C8.20051 1.96553 7.94252 2.16919 7.67906 2.37802C7.41719 2.5856 7.15066 2.7977 6.88882 3.01729L7.21011 3.4004ZM8.77163 2.14259L9.12519 2.49614L9.12616 2.49516L8.77261 2.14161L8.41906 1.78806L8.41808 1.78903L8.77163 2.14259ZM8.77261 2.14161L9.08056 2.53552C9.26458 2.39165 9.41636 2.26677 9.58488 2.14129L9.28628 1.74024L8.98768 1.3392C8.80793 1.47303 8.62346 1.62355 8.46465 1.7477L8.77261 2.14161ZM0.842922 18.9404H1.34292V18.9395H0.842922H0.342922V18.9404H0.842922ZM0.842922 18.9395H0.342922V18.9404H0.842922H1.34292V18.9395H0.842922ZM10.1896 13.0772L10.1935 12.5772C9.93642 12.5752 9.65345 12.5753 9.36704 12.6064L9.42105 13.1035L9.47506 13.6006C9.69785 13.5764 9.92891 13.5752 10.1857 13.5771L10.1896 13.0772ZM9.42105 13.1035L9.38142 13.602C9.39205 13.6028 9.40129 13.6032 9.40868 13.6034C9.41608 13.6036 9.42237 13.6036 9.42708 13.6036C9.43178 13.6035 9.43563 13.6034 9.438 13.6033C9.44021 13.6033 9.44214 13.6032 9.4422 13.6032C9.4428 13.6032 9.44149 13.6032 9.43993 13.6033C9.43821 13.6033 9.43501 13.6034 9.43094 13.6035C9.42687 13.6035 9.42121 13.6035 9.41443 13.6033C9.40767 13.6032 9.39904 13.6028 9.38902 13.602L9.42788 13.1035L9.46675 12.605C9.45619 12.6042 9.44702 12.6038 9.4397 12.6036C9.43237 12.6035 9.42614 12.6035 9.42149 12.6035C9.41685 12.6035 9.41307 12.6036 9.41076 12.6037C9.40957 12.6037 9.40858 12.6038 9.40794 12.6038C9.40734 12.6038 9.40679 12.6038 9.40673 12.6038C9.4062 12.6039 9.40754 12.6038 9.40917 12.6038C9.41095 12.6037 9.41422 12.6036 9.41834 12.6036C9.42248 12.6036 9.42821 12.6036 9.43505 12.6037C9.44188 12.6039 9.45058 12.6043 9.46068 12.6051L9.42105 13.1035ZM9.42788 13.1035L9.48105 13.6007C9.7028 13.577 9.93235 13.5752 10.1858 13.5771L10.1896 13.0772L10.1934 12.5772C9.93736 12.5752 9.65808 12.5761 9.37472 12.6064L9.42788 13.1035ZM15.132 11.5479L14.632 11.5484C14.6325 12.0629 14.6443 12.5386 14.6227 13.0227L15.1222 13.0449L15.6217 13.0672C15.6446 12.5527 15.6325 12.0314 15.632 11.5473L15.132 11.5479ZM15.1222 13.0449L15.0757 12.5471C14.7629 12.5763 14.4471 12.5831 14.1229 12.5763L14.1125 13.0762L14.102 13.5761C14.4531 13.5834 14.8084 13.5764 15.1687 13.5428L15.1222 13.0449ZM14.1125 13.0762L14.1107 12.5762C13.4955 12.5784 12.8798 12.5791 12.2648 12.5791V13.0791V13.5791C12.8806 13.5791 13.4975 13.5784 14.1142 13.5762L14.1125 13.0762ZM12.2648 13.0791L12.2605 12.5791C12.0557 12.5809 11.8546 12.5718 11.6278 12.5648C11.4078 12.558 11.1706 12.5537 10.9278 12.5694L10.9601 13.0684L10.9925 13.5673C11.1852 13.5548 11.3826 13.5577 11.5971 13.5643C11.8049 13.5707 12.0383 13.5811 12.2691 13.5791L12.2648 13.0791ZM10.9601 13.0684L10.9301 12.5693C10.6962 12.5833 10.4606 12.5792 10.1964 12.5772L10.1925 13.0772L10.1886 13.5771C10.4366 13.5791 10.7138 13.5841 10.9902 13.5675L10.9601 13.0684ZM10.1925 13.0772L10.1887 13.5771C10.4345 13.579 10.7141 13.5852 10.9913 13.5684L10.9611 13.0693L10.9309 12.5703C10.6972 12.5844 10.4633 12.5792 10.1964 12.5772L10.1925 13.0772ZM10.9611 13.0693L10.9934 13.5683C11.1865 13.5558 11.3839 13.5586 11.5979 13.5652L11.6134 13.0654L11.6289 12.5657C11.4086 12.5589 11.1717 12.5546 10.9287 12.5704L10.9611 13.0693ZM11.6134 13.0654L11.598 13.5652C11.8054 13.5716 12.0394 13.5821 12.2701 13.5801L12.2658 13.0801L12.2615 12.5801C12.0568 12.5819 11.8556 12.5727 11.6288 12.5657L11.6134 13.0654ZM12.2658 13.0801V13.5801C12.8815 13.5801 13.4985 13.5793 14.1152 13.5772L14.1134 13.0772L14.1117 12.5772C13.4965 12.5793 12.8807 12.5801 12.2658 12.5801V13.0801ZM14.1134 13.0772L14.103 13.577C14.4544 13.5844 14.809 13.5775 15.1698 13.5437L15.1232 13.0459L15.0766 12.5481C14.7635 12.5774 14.4485 12.584 14.1239 12.5773L14.1134 13.0772ZM15.1232 13.0459L15.6227 13.0682C15.6457 12.5535 15.6325 12.0312 15.632 11.5483L15.132 11.5488L14.632 11.5494C14.6325 12.0654 14.6453 12.5394 14.6237 13.0236L15.1232 13.0459ZM15.132 11.5488L15.632 11.5481C15.6298 10.0126 15.6334 8.46583 15.6291 6.92731L15.1291 6.92872L14.6291 6.93013C14.6334 8.46988 14.6298 10.0068 14.632 11.5495L15.132 11.5488ZM15.1291 6.92872H15.6291V6.92774H15.1291H14.6291V6.92872H15.1291ZM15.1291 6.92774L14.6291 6.92915C14.6334 8.46923 14.6298 10.0055 14.632 11.5486L15.132 11.5479L15.632 11.5472C15.6298 10.0113 15.6334 8.46518 15.6291 6.92633L15.1291 6.92774Z" fill="black" mask="url(#path-3-outside-2_1_1388)"/>
<mask id="path-5-outside-3_1_1388" maskUnits="userSpaceOnUse" x="-0.212642" y="-0.637688" width="35" height="10" fill="black">
<rect fill="white" x="-0.212642" y="-0.637688" width="35" height="10"/>
<path fill-rule="evenodd" clip-rule="evenodd" d="M24.3859 4.08985C26.7776 4.10343 29.168 4.08973 31.5597 4.09571C32.2407 4.09245 32.9227 4.09178 33.6037 4.10645C33.2342 4.43842 32.8403 4.74046 32.4464 5.042C32.1068 5.29959 31.7907 5.5854 31.4533 5.84571C30.806 6.33592 30.1882 6.86243 29.548 7.36134C29.0578 7.73958 28.5885 8.14226 28.1027 8.5254C27.993 8.609 27.8857 8.72477 27.756 8.7754C27.487 8.80474 27.2107 8.78039 26.9396 8.78907C23.4435 8.78961 19.9465 8.7869 16.4503 8.78907C16.2064 8.78907 15.9619 8.78583 15.7179 8.77442C16.2228 8.38369 16.7196 7.98023 17.2375 7.60743C17.7754 7.20317 18.2937 6.7746 18.8371 6.37794C18.9619 6.29105 19.0857 6.14183 19.2306 6.09766C19.9317 6.0667 20.643 6.10138 21.3429 6.08399C21.6436 6.10528 21.8837 5.79854 22.1144 5.6377C22.5062 5.36056 22.8402 5.01662 23.2335 4.7422C23.4834 4.5613 23.7077 4.34683 23.9543 4.16212C24.063 4.07038 24.2517 4.09691 24.3859 4.08985ZM9.27847 0.362312C9.53704 0.528042 9.76413 0.738589 10.0168 0.91407C10.3758 1.16995 10.6701 1.49844 11.0373 1.74512C11.5241 2.08801 11.9353 2.52008 12.4259 2.85645C13.0058 3.28689 13.5157 3.80095 14.1125 4.2129C14.4475 4.43673 14.723 4.72357 15.0353 4.97559C15.1016 5.04181 15.1833 5.08376 15.1818 5.18848C15.1992 5.52267 15.2044 5.85918 15.2033 6.19337C14.9697 6.02008 14.7498 5.82976 14.5216 5.64942C14.1027 5.31908 13.6388 5.00294 13.2677 4.62208C13.1205 4.47539 12.9554 4.35141 12.7853 4.23243C12.4165 3.97276 12.0656 3.68896 11.7277 3.38966C11.3196 3.03373 10.869 2.7333 10.4679 2.36817C10.2093 2.1307 9.90912 1.95164 9.64175 1.72559C9.52507 1.62845 9.40187 1.54029 9.27652 1.45509C8.91843 1.72352 8.5658 2.00153 8.21206 2.2754C7.83165 2.62701 7.40436 2.91569 7.00601 3.2461C6.31478 3.80581 5.61171 4.34967 4.93081 4.92188C4.30752 5.38324 3.7391 5.90898 3.11148 6.36329C2.88107 6.53066 2.67802 6.72769 2.45523 6.9043C2.19351 7.11226 1.92647 7.31409 1.66421 7.52149C1.37294 7.7519 1.11024 8.00357 0.795071 8.20411C0.780945 7.83684 0.786263 7.47274 0.810696 7.10548C1.28023 6.78265 1.68752 6.3849 2.15054 6.05177C2.54873 5.76598 2.90903 5.43499 3.298 5.13673C3.93929 4.63782 4.55916 4.11285 5.19937 3.61231C5.91617 3.02269 6.65858 2.46552 7.36831 1.8672C7.73459 1.6009 8.07271 1.30757 8.41616 1.01466C8.70844 0.803301 8.98564 0.572022 9.27847 0.362312ZM21.3849 2.32423C21.386 3.49263 21.3744 4.66125 21.3869 5.82911C21.0252 5.88764 20.6731 5.80076 20.3087 5.83595C19.9664 5.87235 19.6291 5.83825 19.2873 5.8252C19.2894 5.5953 19.2912 5.36467 19.2765 5.13477C19.2504 4.69894 19.2748 4.26635 19.2873 3.83106C19.3003 3.33876 19.2235 2.82142 19.2941 2.33399C19.9895 2.31716 20.6889 2.3264 21.3849 2.32423Z"/>
</mask>
<path fill-rule="evenodd" clip-rule="evenodd" d="M24.3859 4.08985C26.7776 4.10343 29.168 4.08973 31.5597 4.09571C32.2407 4.09245 32.9227 4.09178 33.6037 4.10645C33.2342 4.43842 32.8403 4.74046 32.4464 5.042C32.1068 5.29959 31.7907 5.5854 31.4533 5.84571C30.806 6.33592 30.1882 6.86243 29.548 7.36134C29.0578 7.73958 28.5885 8.14226 28.1027 8.5254C27.993 8.609 27.8857 8.72477 27.756 8.7754C27.487 8.80474 27.2107 8.78039 26.9396 8.78907C23.4435 8.78961 19.9465 8.7869 16.4503 8.78907C16.2064 8.78907 15.9619 8.78583 15.7179 8.77442C16.2228 8.38369 16.7196 7.98023 17.2375 7.60743C17.7754 7.20317 18.2937 6.7746 18.8371 6.37794C18.9619 6.29105 19.0857 6.14183 19.2306 6.09766C19.9317 6.0667 20.643 6.10138 21.3429 6.08399C21.6436 6.10528 21.8837 5.79854 22.1144 5.6377C22.5062 5.36056 22.8402 5.01662 23.2335 4.7422C23.4834 4.5613 23.7077 4.34683 23.9543 4.16212C24.063 4.07038 24.2517 4.09691 24.3859 4.08985ZM9.27847 0.362312C9.53704 0.528042 9.76413 0.738589 10.0168 0.91407C10.3758 1.16995 10.6701 1.49844 11.0373 1.74512C11.5241 2.08801 11.9353 2.52008 12.4259 2.85645C13.0058 3.28689 13.5157 3.80095 14.1125 4.2129C14.4475 4.43673 14.723 4.72357 15.0353 4.97559C15.1016 5.04181 15.1833 5.08376 15.1818 5.18848C15.1992 5.52267 15.2044 5.85918 15.2033 6.19337C14.9697 6.02008 14.7498 5.82976 14.5216 5.64942C14.1027 5.31908 13.6388 5.00294 13.2677 4.62208C13.1205 4.47539 12.9554 4.35141 12.7853 4.23243C12.4165 3.97276 12.0656 3.68896 11.7277 3.38966C11.3196 3.03373 10.869 2.7333 10.4679 2.36817C10.2093 2.1307 9.90912 1.95164 9.64175 1.72559C9.52507 1.62845 9.40187 1.54029 9.27652 1.45509C8.91843 1.72352 8.5658 2.00153 8.21206 2.2754C7.83165 2.62701 7.40436 2.91569 7.00601 3.2461C6.31478 3.80581 5.61171 4.34967 4.93081 4.92188C4.30752 5.38324 3.7391 5.90898 3.11148 6.36329C2.88107 6.53066 2.67802 6.72769 2.45523 6.9043C2.19351 7.11226 1.92647 7.31409 1.66421 7.52149C1.37294 7.7519 1.11024 8.00357 0.795071 8.20411C0.780945 7.83684 0.786263 7.47274 0.810696 7.10548C1.28023 6.78265 1.68752 6.3849 2.15054 6.05177C2.54873 5.76598 2.90903 5.43499 3.298 5.13673C3.93929 4.63782 4.55916 4.11285 5.19937 3.61231C5.91617 3.02269 6.65858 2.46552 7.36831 1.8672C7.73459 1.6009 8.07271 1.30757 8.41616 1.01466C8.70844 0.803301 8.98564 0.572022 9.27847 0.362312ZM21.3849 2.32423C21.386 3.49263 21.3744 4.66125 21.3869 5.82911C21.0252 5.88764 20.6731 5.80076 20.3087 5.83595C19.9664 5.87235 19.6291 5.83825 19.2873 5.8252C19.2894 5.5953 19.2912 5.36467 19.2765 5.13477C19.2504 4.69894 19.2748 4.26635 19.2873 3.83106C19.3003 3.33876 19.2235 2.82142 19.2941 2.33399C19.9895 2.31716 20.6889 2.3264 21.3849 2.32423Z" fill="#654DD5"/>
<path d="M24.3859 4.08985L24.3876 3.78986L24.3789 3.78981L24.3701 3.79027L24.3859 4.08985ZM31.5597 4.09571L31.559 4.39572L31.5612 4.39571L31.5597 4.09571ZM33.6037 4.10645L33.8042 4.3296L34.3681 3.82286L33.6101 3.80652L33.6037 4.10645ZM32.4464 5.042L32.6277 5.28103L32.6288 5.28021L32.4464 5.042ZM31.4533 5.84571L31.6344 6.08487L31.6365 6.08325L31.4533 5.84571ZM29.548 7.36134L29.7313 7.59885L29.7324 7.59797L29.548 7.36134ZM28.1027 8.5254L28.2846 8.764L28.2885 8.76096L28.1027 8.5254ZM27.756 8.7754L27.7885 9.07363L27.8281 9.06932L27.8651 9.05486L27.756 8.7754ZM26.9396 8.78907L26.9396 9.08922L26.9492 9.08892L26.9396 8.78907ZM16.4503 8.78907V9.08907H16.4505L16.4503 8.78907ZM15.7179 8.77442L15.5343 8.53718L14.8898 9.03603L15.7039 9.07409L15.7179 8.77442ZM17.2375 7.60743L17.4128 7.85096L17.4177 7.84725L17.2375 7.60743ZM18.8371 6.37794L18.6656 6.13165L18.6602 6.13564L18.8371 6.37794ZM19.2306 6.09766L19.2174 5.79796L19.1795 5.79963L19.1431 5.8107L19.2306 6.09766ZM21.3429 6.08399L21.3641 5.78474L21.3498 5.78373L21.3355 5.78408L21.3429 6.08399ZM22.1144 5.6377L22.286 5.88382L22.2877 5.88262L22.1144 5.6377ZM23.2335 4.7422L23.4052 4.98828L23.4095 4.9852L23.2335 4.7422ZM23.9543 4.16212L24.1341 4.40223L24.1411 4.39701L24.1477 4.3914L23.9543 4.16212ZM9.27847 0.362312L9.44035 0.109738L9.26914 8.9407e-08L9.1038 0.118406L9.27847 0.362312ZM10.0168 0.91407L10.1909 0.669742L10.1879 0.667683L10.0168 0.91407ZM11.0373 1.74512L11.21 1.49979L11.2046 1.49611L11.0373 1.74512ZM12.4259 2.85645L12.6049 2.6154L12.5956 2.60902L12.4259 2.85645ZM14.1125 4.2129L13.942 4.45981L13.9458 4.46235L14.1125 4.2129ZM15.0353 4.97559L15.2474 4.7634L15.2361 4.75214L15.2237 4.74214L15.0353 4.97559ZM15.1818 5.18848L14.8818 5.18406L14.8817 5.19407L14.8822 5.20407L15.1818 5.18848ZM15.2033 6.19337L15.0245 6.43429L15.5013 6.78808L15.5033 6.19434L15.2033 6.19337ZM14.5216 5.64942L14.7077 5.41407L14.7074 5.41385L14.5216 5.64942ZM13.2677 4.62208L13.4826 4.41269L13.4795 4.40955L13.2677 4.62208ZM12.7853 4.23243L12.6126 4.47774L12.6133 4.47823L12.7853 4.23243ZM11.7277 3.38966L11.9266 3.16508L11.9249 3.16357L11.7277 3.38966ZM10.4679 2.36817L10.265 2.58917L10.266 2.59L10.4679 2.36817ZM9.64175 1.72559L9.83544 1.49649L9.8337 1.49504L9.64175 1.72559ZM9.27652 1.45509L9.44517 1.20698L9.26799 1.08654L9.09657 1.21504L9.27652 1.45509ZM8.21206 2.2754L8.02841 2.03818L8.01805 2.0462L8.00844 2.05509L8.21206 2.2754ZM7.00601 3.2461L7.19481 3.47927L7.19753 3.47701L7.00601 3.2461ZM4.93081 4.92188L5.1093 5.16301L5.11674 5.15751L5.12382 5.15155L4.93081 4.92188ZM3.11148 6.36329L2.93557 6.12027L2.93516 6.12057L3.11148 6.36329ZM2.45523 6.9043L2.26886 6.66921L2.26859 6.66943L2.45523 6.9043ZM1.66421 7.52149L1.47812 7.28618L1.47809 7.28621L1.66421 7.52149ZM0.795071 8.20411L0.495293 8.21564L0.51537 8.73766L0.95612 8.45722L0.795071 8.20411ZM0.810696 7.10548L0.640729 6.85827L0.521002 6.94059L0.511358 7.08556L0.810696 7.10548ZM2.15054 6.05177L1.97562 5.80804L1.97533 5.80825L2.15054 6.05177ZM3.298 5.13673L3.48056 5.3748L3.48221 5.37351L3.298 5.13673ZM5.19937 3.61231L5.3842 3.84873L5.38995 3.844L5.19937 3.61231ZM7.36831 1.8672L7.1919 1.62455L7.18319 1.63088L7.17495 1.63783L7.36831 1.8672ZM8.41616 1.01466L8.24037 0.771557L8.23064 0.778598L8.22149 0.786395L8.41616 1.01466ZM21.3849 2.32423L21.6849 2.32395L21.6846 2.02329L21.384 2.02423L21.3849 2.32423ZM21.3869 5.82911L21.4348 6.12526L21.6896 6.08401L21.6869 5.8259L21.3869 5.82911ZM20.3087 5.83595L20.2799 5.53732L20.277 5.53763L20.3087 5.83595ZM19.2873 5.8252L18.9873 5.82237L18.9845 6.11386L19.2758 6.12498L19.2873 5.8252ZM19.2765 5.13477L18.977 5.15269L18.9771 5.15388L19.2765 5.13477ZM19.2873 3.83106L19.5871 3.83967L19.5872 3.83901L19.2873 3.83106ZM19.2941 2.33399L19.2868 2.03408L19.0335 2.04021L18.9972 2.291L19.2941 2.33399ZM24.3859 4.08985L24.3842 4.38985C26.7752 4.40342 29.1719 4.38974 31.559 4.39571L31.5597 4.09571L31.5605 3.79571C29.164 3.78972 26.7801 3.80344 24.3876 3.78986L24.3859 4.08985ZM31.5597 4.09571L31.5612 4.39571C32.2417 4.39245 32.9204 4.3918 33.5972 4.40638L33.6037 4.10645L33.6101 3.80652C32.925 3.79176 32.2397 3.79245 31.5583 3.79571L31.5597 4.09571ZM33.6037 4.10645L33.4032 3.8833C33.0439 4.20612 32.6593 4.5012 32.2641 4.80379L32.4464 5.042L32.6288 5.28021C33.0213 4.97972 33.4245 4.67071 33.8042 4.3296L33.6037 4.10645ZM32.4464 5.042L32.2652 4.80297C32.0892 4.93641 31.9204 5.07638 31.7571 5.21224C31.5923 5.34942 31.4335 5.48209 31.27 5.60817L31.4533 5.84571L31.6365 6.08325C31.8105 5.94902 31.9785 5.80863 32.1409 5.67343C32.305 5.53691 32.464 5.40518 32.6277 5.28103L32.4464 5.042ZM31.4533 5.84571L31.2722 5.60656C30.6305 6.09247 29.9822 6.64263 29.3636 7.1247L29.548 7.36134L29.7324 7.59797C30.3942 7.08223 30.9815 6.57936 31.6344 6.08486L31.4533 5.84571ZM29.548 7.36134L29.3647 7.12382C28.8827 7.49581 28.3801 7.9246 27.9169 8.28983L28.1027 8.5254L28.2885 8.76096C28.797 8.35992 29.233 7.98335 29.7313 7.59885L29.548 7.36134ZM28.1027 8.5254L27.9208 8.28683C27.8864 8.31305 27.8538 8.34056 27.8261 8.36411C27.7966 8.38918 27.773 8.40951 27.7487 8.42915C27.6992 8.46899 27.6685 8.48751 27.6469 8.49594L27.756 8.7754L27.8651 9.05486C27.9732 9.01266 28.061 8.94799 28.1251 8.89638C28.1574 8.8703 28.1893 8.84284 28.2149 8.82112C28.2422 8.79786 28.2641 8.77955 28.2846 8.76396L28.1027 8.5254ZM27.756 8.7754L27.7235 8.47717C27.6075 8.48982 27.4858 8.49131 27.3516 8.49C27.2226 8.48874 27.0739 8.48462 26.93 8.48922L26.9396 8.78907L26.9492 9.08892C27.0764 9.08484 27.2015 9.08856 27.3457 9.08997C27.4846 9.09133 27.6356 9.09032 27.7885 9.07363L27.756 8.7754ZM26.9396 8.78907L26.9396 8.48907C23.4439 8.48961 19.9463 8.4869 16.4502 8.48907L16.4503 8.78907L16.4505 9.08907C19.9467 9.0869 23.443 9.08961 26.9396 9.08907L26.9396 8.78907ZM16.4503 8.78907L16.4503 8.48907C16.2088 8.48907 15.9694 8.48585 15.7319 8.47475L15.7179 8.77442L15.7039 9.07409C15.9543 9.0858 16.204 9.08907 16.4503 9.08907V8.78907ZM15.7179 8.77442L15.9015 9.01167C16.4139 8.61511 16.9004 8.21971 17.4127 7.85091L17.2375 7.60743L17.0622 7.36395C16.5387 7.74075 16.0316 8.15226 15.5343 8.53718L15.7179 8.77442ZM17.2375 7.60743L17.4177 7.84725C17.9794 7.42511 18.4638 7.02188 19.014 6.62024L18.8371 6.37794L18.6602 6.13564C18.1236 6.52732 17.5713 6.98123 17.0572 7.36761L17.2375 7.60743ZM18.8371 6.37794L19.0084 6.62417C19.0839 6.57164 19.1764 6.48709 19.2179 6.45261C19.2784 6.4024 19.3067 6.3881 19.3181 6.38463L19.2306 6.09766L19.1431 5.8107C19.0097 5.85139 18.9036 5.93379 18.8347 5.99095C18.7469 6.06384 18.7151 6.09734 18.6657 6.13171L18.8371 6.37794ZM19.2306 6.09766L19.2439 6.39737C19.5859 6.38227 19.9321 6.3831 20.2849 6.38573C20.6355 6.38834 20.9943 6.39275 21.3504 6.3839L21.3429 6.08399L21.3355 5.78408C20.9916 5.79263 20.6447 5.78839 20.2894 5.78575C19.9364 5.78312 19.5764 5.7821 19.2174 5.79796L19.2306 6.09766ZM21.3429 6.08399L21.3217 6.38324C21.5827 6.40172 21.792 6.27553 21.934 6.16979C22.0072 6.11533 22.0768 6.05508 22.1338 6.00623C22.1949 5.95395 22.2423 5.91422 22.286 5.88381L22.1144 5.6377L21.9429 5.3916C21.8711 5.4416 21.802 5.50053 21.7438 5.55034C21.6816 5.60357 21.629 5.64883 21.5758 5.6885C21.4649 5.77101 21.4038 5.78755 21.3641 5.78474L21.3429 6.08399ZM22.1144 5.6377L22.2877 5.88262C22.4966 5.73481 22.6885 5.57034 22.8681 5.41718C23.0511 5.26101 23.2223 5.11583 23.4052 4.98824L23.2335 4.7422L23.0619 4.49615C22.8514 4.64298 22.6589 4.80699 22.4787 4.96068C22.295 5.11738 22.124 5.26346 21.9412 5.39279L22.1144 5.6377ZM23.2335 4.7422L23.4095 4.9852C23.5443 4.88755 23.6706 4.78212 23.7882 4.6832C23.9084 4.58216 24.019 4.48845 24.1341 4.40223L23.9543 4.16212L23.7744 3.92201C23.6429 4.02049 23.5181 4.12637 23.4021 4.22397C23.2835 4.32369 23.1726 4.41594 23.0576 4.4992L23.2335 4.7422ZM23.9543 4.16212L24.1477 4.3914C24.1275 4.40842 24.1221 4.39788 24.1826 4.39342C24.209 4.39147 24.2385 4.39116 24.2766 4.39122C24.3105 4.39128 24.3578 4.39174 24.4017 4.38944L24.3859 4.08985L24.3701 3.79027C24.3468 3.79149 24.3203 3.79129 24.2776 3.79122C24.2392 3.79116 24.1896 3.79127 24.1385 3.79504C24.0439 3.80202 23.8897 3.82408 23.7608 3.93283L23.9543 4.16212ZM9.27847 0.362312L9.11659 0.614886C9.23221 0.688993 9.34341 0.774816 9.46393 0.869979C9.58111 0.962512 9.70984 1.06615 9.8456 1.16046L10.0168 0.91407L10.1879 0.667683C10.071 0.586509 9.95992 0.497133 9.83576 0.39909C9.71493 0.303676 9.5833 0.201361 9.44035 0.109738L9.27847 0.362312ZM10.0168 0.91407L9.84265 1.15838C10.0069 1.27542 10.1577 1.41 10.3255 1.55804C10.489 1.70224 10.6679 1.85842 10.87 1.99414L11.0373 1.74512L11.2046 1.49611C11.0394 1.38514 10.8876 1.25373 10.7224 1.10804C10.5616 0.966199 10.3857 0.808595 10.1909 0.66976L10.0168 0.91407ZM11.0373 1.74512L10.8645 1.9904C11.0941 2.15207 11.3074 2.33589 11.5349 2.53096C11.7585 2.72275 11.9957 2.92521 12.2563 3.10389L12.4259 2.85645L12.5956 2.60902C12.3656 2.45132 12.1518 2.26955 11.9255 2.07549C11.703 1.88472 11.4673 1.68106 11.21 1.49985L11.0373 1.74512ZM12.4259 2.85645L12.2471 3.09734C12.527 3.30513 12.7905 3.53336 13.0684 3.77001C13.3429 4.00384 13.6299 4.24429 13.942 4.45978L14.1125 4.2129L14.2829 3.96601C13.9983 3.76956 13.7319 3.547 13.4574 3.31321C13.1862 3.08223 12.9047 2.83821 12.6047 2.61557L12.4259 2.85645ZM14.1125 4.2129L13.9458 4.46235C14.0966 4.56311 14.2374 4.68033 14.3848 4.80936C14.5278 4.93459 14.6845 5.07799 14.8469 5.20905L15.0353 4.97559L15.2237 4.74214C15.0738 4.62117 14.9367 4.49514 14.7801 4.35799C14.6278 4.22464 14.4633 4.08652 14.2791 3.96344L14.1125 4.2129ZM15.0353 4.97559L14.8232 5.18779C14.8367 5.20124 14.8495 5.21306 14.8604 5.22281C14.8706 5.23194 14.8817 5.24162 14.8885 5.24757C14.8964 5.25454 14.9015 5.25909 14.9055 5.26286C14.9094 5.26648 14.9107 5.26792 14.9105 5.26776C14.9101 5.26727 14.9013 5.25738 14.8933 5.23904C14.8847 5.21905 14.8816 5.19927 14.8818 5.18406L15.1818 5.18848L15.4818 5.19291C15.4839 5.04548 15.4214 4.93883 15.3574 4.86744C15.3299 4.83665 15.3011 4.8114 15.2842 4.79656C15.2635 4.77835 15.2553 4.77128 15.2474 4.7634L15.0353 4.97559ZM15.1818 5.18848L14.8822 5.20407C14.8992 5.53109 14.9043 5.86179 14.9033 6.19239L15.2033 6.19337L15.5033 6.19434C15.5044 5.85658 15.4991 5.51424 15.4814 5.1729L15.1818 5.18848ZM15.2033 6.19337L15.382 5.95244C15.1512 5.78115 14.9519 5.60714 14.7077 5.41407L14.5216 5.64942L14.3356 5.88477C14.5476 6.05239 14.7883 6.25901 15.0245 6.43429L15.2033 6.19337ZM14.5216 5.64942L14.7074 5.41385C14.2654 5.06531 13.8355 4.77487 13.4826 4.41271L13.2677 4.62208L13.0529 4.83144C13.4422 5.23101 13.94 5.57285 14.3359 5.88499L14.5216 5.64942ZM13.2677 4.62208L13.4795 4.40955C13.3136 4.24429 13.1315 4.10852 12.9573 3.98663L12.7853 4.23243L12.6133 4.47823C12.7792 4.59431 12.9274 4.70649 13.056 4.83461L13.2677 4.62208ZM12.7853 4.23243L12.958 3.98712C12.6 3.73508 12.2579 3.45852 11.9266 3.16509L11.7277 3.38966L11.5288 3.61422C11.8733 3.91939 12.2329 4.21045 12.6126 4.47774L12.7853 4.23243ZM11.7277 3.38966L11.9249 3.16357C11.7127 2.97847 11.4899 2.80832 11.2786 2.645C11.0645 2.4795 10.8604 2.3198 10.6699 2.14634L10.4679 2.36817L10.266 2.59C10.4765 2.78168 10.6982 2.95475 10.9117 3.11974C11.128 3.28689 11.3346 3.44492 11.5305 3.61575L11.7277 3.38966ZM10.4679 2.36817L10.6708 2.14718C10.5278 2.0159 10.3759 1.90308 10.2349 1.80023C10.0901 1.69459 9.95889 1.60087 9.83544 1.4965L9.64175 1.72559L9.44806 1.95469C9.59199 2.07637 9.74454 2.1852 9.8813 2.28496C10.0219 2.38752 10.1494 2.48296 10.265 2.58916L10.4679 2.36817ZM9.64175 1.72559L9.8337 1.49504C9.70625 1.38893 9.57399 1.29455 9.44517 1.20698L9.27652 1.45509L9.10786 1.70319C9.22974 1.78604 9.3439 1.86798 9.4498 1.95615L9.64175 1.72559ZM9.27652 1.45509L9.09657 1.21504C8.736 1.48533 8.37934 1.76649 8.02841 2.03818L8.21206 2.2754L8.39572 2.51261C8.75226 2.23657 9.10085 1.9617 9.45646 1.69513L9.27652 1.45509ZM8.21206 2.2754L8.00844 2.05509C7.82855 2.22136 7.63545 2.3747 7.43258 2.53112C7.2327 2.68524 7.0191 2.84548 6.81448 3.01519L7.00601 3.2461L7.19753 3.47701C7.39127 3.31632 7.59049 3.16701 7.79895 3.00628C8.00441 2.84786 8.21516 2.68105 8.41569 2.49571L8.21206 2.2754ZM7.00601 3.2461L6.81722 3.01295C6.13364 3.56647 5.42077 4.11826 4.7378 4.69221L4.93081 4.92188L5.12382 5.15155C5.80265 4.58108 6.49592 4.04516 7.1948 3.47925L7.00601 3.2461ZM4.93081 4.92188L4.75233 4.68075C4.43318 4.91699 4.12887 5.16912 3.83201 5.41368C3.53295 5.66007 3.24074 5.89937 2.93557 6.12028L3.11148 6.36329L3.28739 6.6063C3.60984 6.37289 3.91565 6.12217 4.21352 5.87677C4.51361 5.62955 4.80515 5.38814 5.1093 5.16301L4.93081 4.92188ZM3.11148 6.36329L2.93516 6.12057C2.80941 6.21192 2.69323 6.30982 2.58503 6.40275C2.47427 6.49788 2.37426 6.58566 2.26886 6.66921L2.45523 6.9043L2.64159 7.1394C2.75899 7.04633 2.8719 6.94729 2.97596 6.85791C3.08259 6.76633 3.18314 6.68203 3.28779 6.60601L3.11148 6.36329ZM2.45523 6.9043L2.26859 6.66943C1.99256 6.88876 1.76198 7.0617 1.47812 7.28618L1.66421 7.52149L1.8503 7.7568C2.09097 7.56647 2.39447 7.33576 2.64186 7.13918L2.45523 6.9043ZM1.66421 7.52149L1.47809 7.28621C1.15633 7.54073 0.933295 7.76058 0.634022 7.951L0.795071 8.20411L0.95612 8.45722C1.28719 8.24656 1.58954 7.96307 1.85033 7.75678L1.66421 7.52149ZM0.795071 8.20411L1.09485 8.19258C1.08113 7.83592 1.08629 7.48232 1.11003 7.12539L0.810696 7.10548L0.511358 7.08556C0.486237 7.46317 0.480759 7.83776 0.495293 8.21564L0.795071 8.20411ZM0.810696 7.10548L0.980663 7.35268C1.22807 7.18258 1.4569 6.99424 1.67476 6.81325C1.89573 6.62967 2.10451 6.45446 2.32575 6.29529L2.15054 6.05177L1.97533 5.80825C1.73355 5.98221 1.50717 6.17244 1.29135 6.35173C1.07244 6.5336 0.862854 6.70555 0.640729 6.85827L0.810696 7.10548ZM2.15054 6.05177L2.32546 6.29549C2.53352 6.14616 2.72991 5.98631 2.91884 5.83018C3.10997 5.67223 3.29162 5.51966 3.48055 5.37479L3.298 5.13673L3.11545 4.89866C2.91541 5.05205 2.72243 5.21412 2.53662 5.36767C2.34861 5.52305 2.16575 5.67158 1.97562 5.80804L2.15054 6.05177ZM3.298 5.13673L3.48221 5.37351C3.80576 5.1218 4.12344 4.86387 4.43832 4.60792C4.75398 4.35134 5.0667 4.09684 5.38415 3.84865L5.19937 3.61231L5.01459 3.37597C4.69183 3.62832 4.37451 3.88658 4.05986 4.14233C3.74443 4.39873 3.43153 4.65275 3.11379 4.89994L3.298 5.13673ZM5.19937 3.61231L5.38995 3.844C6.08351 3.27349 6.85949 2.68853 7.56168 2.09656L7.36831 1.8672L7.17495 1.63783C6.45768 2.24251 5.74883 2.77189 5.00879 3.38062L5.19937 3.61231ZM7.36831 1.8672L7.54473 2.10984C7.92256 1.83514 8.27079 1.53293 8.61084 1.24292L8.41616 1.01466L8.22149 0.786395C7.87463 1.08221 7.54661 1.36666 7.1919 1.62455L7.36831 1.8672ZM8.41616 1.01466L8.59196 1.25775C8.74294 1.14858 8.88944 1.03467 9.03095 0.92494C9.17387 0.814108 9.31205 0.707257 9.45314 0.606218L9.27847 0.362312L9.1038 0.118406C8.95205 0.227077 8.80522 0.34072 8.66327 0.450794C8.5199 0.561972 8.38167 0.66938 8.24037 0.771557L8.41616 1.01466ZM21.3849 2.32423L21.0849 2.3245C21.086 3.48818 21.0744 4.66288 21.0869 5.83232L21.3869 5.82911L21.6869 5.8259C21.6744 4.65963 21.686 3.49707 21.6849 2.32395L21.3849 2.32423ZM21.3869 5.82911L21.3389 5.53296C21.1937 5.55647 21.0447 5.55177 20.8656 5.54175C20.6953 5.53222 20.49 5.51705 20.2799 5.53733L20.3087 5.83595L20.3376 6.13456C20.4919 6.11966 20.6448 6.13033 20.8321 6.14081C21.0105 6.1508 21.2184 6.16028 21.4348 6.12526L21.3869 5.82911ZM20.3087 5.83595L20.277 5.53763C19.9633 5.57099 19.6653 5.53942 19.2987 5.52542L19.2873 5.8252L19.2758 6.12498C19.5928 6.13709 19.9695 6.17372 20.3405 6.13426L20.3087 5.83595ZM19.2873 5.8252L19.5872 5.82804C19.5894 5.59943 19.5914 5.35816 19.5759 5.11566L19.2765 5.13477L18.9771 5.15388C18.991 5.37118 18.9895 5.59118 18.9873 5.82237L19.2873 5.8252ZM19.2765 5.13477L19.576 5.11685C19.5509 4.69837 19.5743 4.28618 19.5871 3.83967L19.2873 3.83106L18.9874 3.82245C18.9752 4.24653 18.9499 4.69951 18.9771 5.15269L19.2765 5.13477ZM19.2873 3.83106L19.5872 3.83901C19.594 3.58062 19.5773 3.31043 19.5689 3.07029C19.5603 2.82171 19.5597 2.59282 19.591 2.37698L19.2941 2.33399L18.9972 2.291C18.9579 2.56259 18.9604 2.83608 18.9693 3.09111C18.9784 3.35457 18.9936 3.5892 18.9874 3.82312L19.2873 3.83106ZM19.2941 2.33399L19.3014 2.6339C19.9927 2.61717 20.6832 2.62642 21.3858 2.62422L21.3849 2.32423L21.384 2.02423C20.6947 2.02638 19.9863 2.01715 19.2868 2.03408L19.2941 2.33399Z" fill="black" mask="url(#path-5-outside-3_1_1388)"/>
<mask id="path-7-outside-4_1_1388" maskUnits="userSpaceOnUse" x="26.9435" y="3.14845" width="15" height="9" fill="black">
<rect fill="white" x="26.9435" y="3.14845" width="15" height="9"/>
<path d="M33.9591 4.14845C34.1385 4.25552 34.3004 4.38421 34.4591 4.51954C35.2504 5.19345 36.0808 5.82175 36.8683 6.50001C37.0953 6.67381 37.3147 6.85854 37.5314 7.04591C38.1063 7.54094 38.7141 7.99673 39.2814 8.50098C39.848 8.95132 40.4125 9.39298 40.9601 9.8672C41.0392 9.93717 41.0224 10.0397 41.0304 10.1357C41.0304 10.4326 41.0326 10.7301 41.0255 11.0264C40.9539 10.9803 40.882 10.9343 40.8136 10.8828C40.1371 10.328 39.4497 9.78597 38.7824 9.21973C38.1217 8.70461 37.4975 8.14534 36.84 7.62696C36.1373 7.04333 35.4321 6.46297 34.7218 5.88966C34.46 5.71844 34.2339 5.44268 33.9503 5.31934C33.8005 5.40245 33.6661 5.53264 33.5314 5.63966C32.6946 6.28577 31.8801 6.9613 31.047 7.61231C30.5156 8.06333 29.9561 8.47859 29.4181 8.92091C28.9395 9.32671 28.4324 9.696 27.9484 10.0947C27.9489 9.78201 27.9451 9.46899 27.9435 9.15626C27.9499 9.0802 27.9355 8.96794 27.9972 8.91212C28.1248 8.77765 28.2887 8.66993 28.4357 8.55762C28.7175 8.32257 29.0175 8.10889 29.3009 7.87598C30.1612 7.17007 31.0433 6.49151 31.9074 5.79102C32.5878 5.23944 33.2673 4.68536 33.9591 4.14845ZM33.9289 4.29688C33.9188 4.30109 33.9083 4.30668 33.8976 4.31446C33.6525 4.48564 33.4199 4.67628 33.1759 4.84962C32.9496 5.0191 32.7335 5.25816 32.4992 5.45606C32.7338 5.25847 32.9505 5.02007 33.1769 4.85059C33.4208 4.6773 33.6536 4.48556 33.8986 4.31446C33.909 4.30695 33.919 4.30102 33.9289 4.29688Z"/>
</mask>
<path d="M33.9591 4.14845C34.1385 4.25552 34.3004 4.38421 34.4591 4.51954C35.2504 5.19345 36.0808 5.82175 36.8683 6.50001C37.0953 6.67381 37.3147 6.85854 37.5314 7.04591C38.1063 7.54094 38.7141 7.99673 39.2814 8.50098C39.848 8.95132 40.4125 9.39298 40.9601 9.8672C41.0392 9.93717 41.0224 10.0397 41.0304 10.1357C41.0304 10.4326 41.0326 10.7301 41.0255 11.0264C40.9539 10.9803 40.882 10.9343 40.8136 10.8828C40.1371 10.328 39.4497 9.78597 38.7824 9.21973C38.1217 8.70461 37.4975 8.14534 36.84 7.62696C36.1373 7.04333 35.4321 6.46297 34.7218 5.88966C34.46 5.71844 34.2339 5.44268 33.9503 5.31934C33.8005 5.40245 33.6661 5.53264 33.5314 5.63966C32.6946 6.28577 31.8801 6.9613 31.047 7.61231C30.5156 8.06333 29.9561 8.47859 29.4181 8.92091C28.9395 9.32671 28.4324 9.696 27.9484 10.0947C27.9489 9.78201 27.9451 9.46899 27.9435 9.15626C27.9499 9.0802 27.9355 8.96794 27.9972 8.91212C28.1248 8.77765 28.2887 8.66993 28.4357 8.55762C28.7175 8.32257 29.0175 8.10889 29.3009 7.87598C30.1612 7.17007 31.0433 6.49151 31.9074 5.79102C32.5878 5.23944 33.2673 4.68536 33.9591 4.14845ZM33.9289 4.29688C33.9188 4.30109 33.9083 4.30668 33.8976 4.31446C33.6525 4.48564 33.4199 4.67628 33.1759 4.84962C32.9496 5.0191 32.7335 5.25816 32.4992 5.45606C32.7338 5.25847 32.9505 5.02007 33.1769 4.85059C33.4208 4.6773 33.6536 4.48556 33.8986 4.31446C33.909 4.30695 33.919 4.30102 33.9289 4.29688Z" fill="#8E7AEC"/>
<path d="M33.9591 4.14845L34.1129 3.89085L33.937 3.78585L33.7752 3.91145L33.9591 4.14845ZM34.4591 4.51954L34.2645 4.74781L34.2646 4.74794L34.4591 4.51954ZM36.8683 6.50001L36.6725 6.72732L36.6791 6.73296L36.6859 6.73822L36.8683 6.50001ZM37.5314 7.04591L37.3352 7.27284L37.3356 7.27324L37.5314 7.04591ZM39.2814 8.50098L39.0821 8.72521L39.0883 8.7307L39.0947 8.73584L39.2814 8.50098ZM40.9601 9.8672L41.1588 9.64244L41.1565 9.64041L40.9601 9.8672ZM41.0304 10.1357L41.3304 10.1357V10.1232L41.3294 10.1107L41.0304 10.1357ZM41.0255 11.0264L40.8631 11.2786L41.3128 11.5681L41.3255 11.0335L41.0255 11.0264ZM40.8136 10.8828L40.6232 11.115L40.633 11.1224L40.8136 10.8828ZM38.7824 9.21973L38.9766 8.99079L38.9668 8.98314L38.7824 9.21973ZM36.84 7.62696L36.6482 7.85781L36.6542 7.86254L36.84 7.62696ZM34.7218 5.88966L34.9103 5.65622L34.8986 5.64679L34.886 5.63858L34.7218 5.88966ZM33.9503 5.31934L34.07 5.04424L33.9343 4.98522L33.8049 5.05697L33.9503 5.31934ZM33.5314 5.63966L33.7148 5.87714L33.718 5.87454L33.5314 5.63966ZM31.047 7.61231L30.8621 7.37574L30.8529 7.38358L31.047 7.61231ZM29.4181 8.92091L29.2276 8.68915L29.2241 8.69208L29.4181 8.92091ZM27.9484 10.0947L27.6484 10.0942L27.6473 10.7314L28.1391 10.3263L27.9484 10.0947ZM27.9435 9.15626L27.6446 9.13123L27.6434 9.1445L27.6435 9.15782L27.9435 9.15626ZM27.9972 8.91212L28.1985 9.13458L28.207 9.12692L28.2148 9.11864L27.9972 8.91212ZM28.4357 8.55762L28.618 8.79626L28.6279 8.788L28.4357 8.55762ZM29.3009 7.87598L29.1106 7.64407L29.1105 7.6442L29.3009 7.87598ZM31.9074 5.79102L32.0963 6.02406L32.0963 6.02406L31.9074 5.79102ZM33.9289 4.29688L34.0452 4.5734L33.8132 4.02008L33.9289 4.29688ZM33.8976 4.31446L34.0694 4.56044L34.0738 4.55727L33.8976 4.31446ZM33.1759 4.84962L33.0021 4.60498L32.9961 4.60946L33.1759 4.84962ZM32.4992 5.45606L32.3056 5.22688L32.6924 5.68553L32.4992 5.45606ZM33.1769 4.85059L33.0031 4.60597L32.9971 4.61044L33.1769 4.85059ZM33.8986 4.31446L34.0704 4.56043L34.0737 4.55803L33.8986 4.31446ZM33.9591 4.14845L33.8054 4.40604C33.9631 4.50018 34.11 4.61604 34.2645 4.74781L34.4591 4.51954L34.6538 4.29127C34.4909 4.15237 34.3139 4.01085 34.1129 3.89085L33.9591 4.14845ZM34.4591 4.51954L34.2646 4.74794C34.664 5.08809 35.0729 5.4164 35.477 5.7418C35.8823 6.06816 36.2831 6.39187 36.6725 6.72732L36.8683 6.50001L37.0641 6.2727C36.6661 5.92989 36.2579 5.60032 35.8533 5.27448C35.4475 4.94769 35.0455 4.62489 34.6536 4.29114L34.4591 4.51954ZM36.8683 6.50001L36.6859 6.73822C36.9059 6.90664 37.1201 7.08686 37.3352 7.27284L37.5314 7.04591L37.7276 6.81897C37.5093 6.63021 37.2847 6.44097 37.0507 6.2618L36.8683 6.50001ZM37.5314 7.04591L37.3356 7.27324C37.6273 7.52439 37.9272 7.76544 38.2204 8.00305C38.5151 8.2419 38.8041 8.47809 39.0821 8.72521L39.2814 8.50098L39.4807 8.27676C39.1914 8.01962 38.8929 7.77578 38.5981 7.53692C38.3019 7.29681 38.0104 7.06246 37.7271 6.81857L37.5314 7.04591ZM39.2814 8.50098L39.0947 8.73584C39.664 9.18832 40.2222 9.62499 40.7637 10.094L40.9601 9.8672L41.1565 9.64041C40.6029 9.16096 40.032 8.71432 39.4681 8.26613L39.2814 8.50098ZM40.9601 9.8672L40.7614 10.0919C40.7484 10.0805 40.7378 10.0657 40.731 10.0509C40.725 10.0379 40.7244 10.0302 40.725 10.0345C40.7258 10.0399 40.7266 10.0496 40.7273 10.0729C40.7276 10.0819 40.7281 10.098 40.7286 10.111C40.7291 10.1254 40.7299 10.1425 40.7315 10.1608L41.0304 10.1357L41.3294 10.1107C41.3282 10.0966 41.328 10.0835 41.327 10.0534C41.3262 10.0282 41.3248 9.98987 41.3189 9.94894C41.3062 9.86072 41.2699 9.74066 41.1588 9.64246L40.9601 9.8672ZM41.0304 10.1357L40.7304 10.1358C40.7304 10.4356 40.7326 10.7276 40.7256 11.0193L41.0255 11.0264L41.3255 11.0335C41.3326 10.7325 41.3304 10.4296 41.3304 10.1357L41.0304 10.1357ZM41.0255 11.0264L41.188 10.7741C41.1138 10.7264 41.0519 10.6868 40.9942 10.6433L40.8136 10.8828L40.633 11.1224C40.712 11.1819 40.7941 11.2342 40.8631 11.2786L41.0255 11.0264ZM40.8136 10.8828L41.0039 10.6508C40.3208 10.0907 39.6418 9.5555 38.9765 8.99099L38.7824 9.21973L38.5883 9.44848C39.2576 10.0164 39.9533 10.5653 40.6234 11.1148L40.8136 10.8828ZM38.7824 9.21973L38.9668 8.98314C38.6413 8.72932 38.3239 8.464 38.0027 8.19469C37.6828 7.92643 37.3587 7.65391 37.0257 7.39138L36.84 7.62696L36.6542 7.86254C36.9787 8.11839 37.2955 8.38469 37.6172 8.65445C37.9377 8.92315 38.2628 9.19502 38.5979 9.45633L38.7824 9.21973ZM36.84 7.62696L37.0317 7.39619C36.3284 6.81199 35.6219 6.23068 34.9103 5.65622L34.7218 5.88966L34.5334 6.1231C35.2422 6.69525 35.9463 7.27466 36.6483 7.85773L36.84 7.62696ZM34.7218 5.88966L34.886 5.63858C34.7756 5.5664 34.6759 5.47446 34.5383 5.35775C34.412 5.2506 34.2557 5.12498 34.07 5.04424L33.9503 5.31934L33.8307 5.59445C33.9286 5.63704 34.0271 5.71096 34.1502 5.81534C34.262 5.91015 34.4062 6.0417 34.5576 6.14074L34.7218 5.88966ZM33.9503 5.31934L33.8049 5.05697C33.6263 5.15596 33.4458 5.32449 33.3448 5.40478L33.5314 5.63966L33.718 5.87454C33.8864 5.74078 33.9746 5.64893 34.0958 5.58172L33.9503 5.31934ZM33.5314 5.63966L33.3481 5.4022C32.5195 6.04191 31.677 6.73926 30.8623 7.37593L31.047 7.61231L31.2318 7.84869C32.0831 7.18335 32.8696 6.52963 33.7147 5.87712L33.5314 5.63966ZM31.047 7.61231L30.8529 7.38358C30.3153 7.83984 29.7896 8.22713 29.2276 8.68918L29.4181 8.92091L29.6086 9.15264C30.1226 8.73006 30.7159 8.28681 31.2411 7.84104L31.047 7.61231ZM29.4181 8.92091L29.2241 8.69208C28.9899 8.89066 28.7478 9.08112 28.5007 9.27399C28.255 9.46579 28.0035 9.6607 27.7577 9.86318L27.9484 10.0947L28.1391 10.3263C28.3774 10.13 28.6214 9.94093 28.8699 9.74695C29.117 9.55404 29.3677 9.35696 29.6121 9.14973L29.4181 8.92091ZM27.9484 10.0947L28.2484 10.0952C28.2489 9.7813 28.2451 9.46449 28.2435 9.15469L27.9435 9.15626L27.6435 9.15782C27.6452 9.47348 27.6489 9.78271 27.6484 10.0942L27.9484 10.0947ZM27.9435 9.15626L28.2425 9.18129C28.2439 9.16452 28.2445 9.14873 28.245 9.13589C28.2454 9.12364 28.2456 9.11 28.2458 9.10085C28.2463 9.07902 28.2469 9.06762 28.2478 9.05953C28.2487 9.05139 28.2489 9.05699 28.2441 9.06964C28.2387 9.08388 28.2258 9.10989 28.1985 9.13458L27.9972 8.91212L27.7959 8.68965C27.681 8.79365 27.6585 8.92951 27.6514 8.99368C27.6474 9.03013 27.6465 9.06455 27.646 9.0869C27.6454 9.11439 27.6452 9.1237 27.6446 9.13123L27.9435 9.15626ZM27.9972 8.91212L28.2148 9.11864C28.3205 9.00731 28.4468 8.92662 28.6178 8.79604L28.4357 8.55762L28.2536 8.31921C28.1305 8.41324 27.9292 8.54799 27.7796 8.7056L27.9972 8.91212ZM28.4357 8.55762L28.6279 8.788C28.7635 8.67484 28.9045 8.56608 29.0505 8.45389C29.195 8.34281 29.3451 8.22796 29.4914 8.10776L29.3009 7.87598L29.1105 7.6442C28.9733 7.75691 28.8317 7.86535 28.6849 7.97811C28.5396 8.08974 28.3897 8.20535 28.2435 8.32725L28.4357 8.55762ZM29.3009 7.87598L29.4912 8.1079C30.3572 7.3973 31.2176 6.73638 32.0963 6.02406L31.9074 5.79102L31.7185 5.55798C30.869 6.24664 29.9652 6.94283 29.1106 7.64407L29.3009 7.87598ZM31.9074 5.79102L32.0963 6.02406C32.7778 5.47159 33.4544 4.91993 34.1431 4.38544L33.9591 4.14845L33.7752 3.91145C33.0803 4.45079 32.3977 5.00728 31.7184 5.55798L31.9074 5.79102ZM33.9289 4.29688L33.8132 4.02008C33.7835 4.03248 33.7525 4.04913 33.7214 4.07165L33.8976 4.31446L34.0738 4.55727C34.0642 4.56423 34.0541 4.56969 34.0445 4.57368L33.9289 4.29688ZM33.8976 4.31446L33.7258 4.06852C33.5976 4.15805 33.4737 4.25198 33.3548 4.34244C33.2343 4.43403 33.1194 4.52179 33.0022 4.60506L33.1759 4.84962L33.3497 5.09418C33.4765 5.0041 33.5998 4.90987 33.718 4.82001C33.8376 4.72902 33.9525 4.64205 34.0694 4.5604L33.8976 4.31446ZM33.1759 4.84962L32.9961 4.60946C32.8676 4.7057 32.7458 4.81871 32.6342 4.92435C32.5187 5.03381 32.4144 5.13497 32.3056 5.22688L32.4992 5.45606L32.6928 5.68525C32.8182 5.57925 32.9392 5.46193 33.0468 5.36001C33.1585 5.25427 33.2579 5.16302 33.3557 5.08977L33.1759 4.84962ZM32.4992 5.45606L32.6924 5.68553C32.818 5.57976 32.9391 5.46281 33.047 5.361C33.1589 5.25545 33.2586 5.16417 33.3567 5.09074L33.1769 4.85059L32.9971 4.61044C32.8688 4.7065 32.747 4.81915 32.6353 4.92457C32.5196 5.03372 32.415 5.13477 32.3059 5.2266L32.4992 5.45606ZM33.1769 4.85059L33.3507 5.09514C33.4776 5.00497 33.6011 4.91035 33.7192 4.82026C33.8389 4.72899 33.9537 4.64189 34.0704 4.56041L33.8986 4.31446L33.7268 4.06851C33.5985 4.15814 33.4744 4.25245 33.3554 4.34315C33.2349 4.43503 33.1201 4.52293 33.0031 4.60605L33.1769 4.85059ZM33.8986 4.31446L34.0737 4.55803C34.0721 4.55923 34.0622 4.56627 34.0452 4.5734L33.9289 4.29688L33.8125 4.02037C33.7759 4.03577 33.746 4.05468 33.7234 4.07089L33.8986 4.31446Z" fill="black" mask="url(#path-7-outside-4_1_1388)"/>
<path fill-rule="evenodd" clip-rule="evenodd" d="M33.9718 5.58497C34.1696 5.71159 34.3393 5.8848 34.5246 6.0293C34.6984 6.17809 34.9155 6.30721 35.0578 6.48536L35.049 6.50489L35.0724 6.51075L35.1212 6.52247C35.3103 6.65555 35.4789 6.81698 35.6603 6.96095C36.0641 7.30064 36.4823 7.62233 36.8839 7.96583C37.442 8.4413 38.0254 8.88499 38.5802 9.36427C38.9036 9.64145 39.2505 9.88927 39.5734 10.167C40.0493 10.5788 40.5604 10.9522 41.0255 11.376C41.025 15.6598 41.0302 19.9451 41.0226 24.2295C36.6667 24.2311 32.3102 24.234 27.9542 24.2285C27.9412 19.6169 27.9515 15.0013 27.9494 10.3897C28.4124 10.0179 28.8818 9.6542 29.34 9.2754C29.9883 8.78466 30.5992 8.24791 31.2492 7.7588C31.7682 7.33595 32.2976 6.92601 32.8156 6.50098C33.2134 6.21078 33.5784 5.87897 33.9718 5.58497ZM40.9425 20.3535H40.9435H40.9425Z" fill="#8E7AEC"/>
<path d="M8.40661 7.0583C9.1148 7.05504 9.82081 7.05775 10.529 7.06101C10.6045 7.06699 10.7067 7.05449 10.7192 7.15395C10.7491 7.52952 10.7198 7.91106 10.7312 8.2877C10.7209 8.83664 10.7584 9.39156 10.71 9.93887C9.77842 9.95681 8.84576 9.94811 7.91365 9.94757C7.88811 9.92637 7.86256 9.90518 7.83702 9.88398C7.82452 8.96056 7.84137 8.03661 7.82778 7.11319L7.84245 7.09797C8.01474 7.03656 8.22454 7.06156 8.40661 7.0583Z" fill="#0D0806"/>
<path d="M7.82797 7.11318C7.84156 8.0366 7.82471 8.96056 7.83721 9.88397L7.73829 9.79756C7.70949 9.06056 7.73884 8.31922 7.7247 7.58114C7.73286 7.40831 7.69209 7.24689 7.82797 7.11318Z" fill="#7BB0F2"/>
<path d="M8.06796 7.29472C8.87886 7.29635 9.68923 7.29473 10.4996 7.29309C10.4947 8.09911 10.5072 8.90567 10.4947 9.71169C9.68543 9.7068 8.87669 9.7155 8.06741 9.71169C8.06904 8.90622 8.06796 8.1002 8.06796 7.29472Z" fill="#F6C158"/>
<mask id="path-13-outside-5_1_1388" maskUnits="userSpaceOnUse" x="14.4386" y="8.01904" width="14" height="11" fill="black">
<rect fill="white" x="14.4386" y="8.01904" width="14" height="11"/>
<path fill-rule="evenodd" clip-rule="evenodd" d="M27.6876 9.0231C27.7284 9.38984 27.7049 9.76539 27.713 10.1354C27.713 12.7392 27.71 15.3466 27.716 17.9499C27.6785 17.9216 27.6411 17.8933 27.6037 17.8639C27.302 17.6193 26.994 17.3835 26.6896 17.1422C26.1674 16.7558 25.6713 16.3343 25.1447 15.9528C23.9811 15.0544 22.824 14.1432 21.6642 13.2399C21.5207 13.1198 21.355 13.1641 21.1789 13.1559C19.2665 13.1608 17.3535 13.1564 15.4406 13.1608C15.4428 11.7825 15.4332 10.3989 15.4435 9.02114C19.5121 9.02169 23.6304 9.01495 27.6876 9.0231Z"/>
</mask>
<path fill-rule="evenodd" clip-rule="evenodd" d="M27.6876 9.0231C27.7284 9.38984 27.7049 9.76539 27.713 10.1354C27.713 12.7392 27.71 15.3466 27.716 17.9499C27.6785 17.9216 27.6411 17.8933 27.6037 17.8639C27.302 17.6193 26.994 17.3835 26.6896 17.1422C26.1674 16.7558 25.6713 16.3343 25.1447 15.9528C23.9811 15.0544 22.824 14.1432 21.6642 13.2399C21.5207 13.1198 21.355 13.1641 21.1789 13.1559C19.2665 13.1608 17.3535 13.1564 15.4406 13.1608C15.4428 11.7825 15.4332 10.3989 15.4435 9.02114C19.5121 9.02169 23.6304 9.01495 27.6876 9.0231Z" fill="#654DD5"/>
<path d="M27.6876 9.0231L28.1846 8.96788L28.1353 8.524L27.6887 8.5231L27.6876 9.0231ZM27.713 10.1354H28.2132L28.2129 10.1244L27.713 10.1354ZM27.716 17.9499L27.415 18.3492L28.2183 18.9545L28.216 17.9487L27.716 17.9499ZM27.6037 17.8639L27.2887 18.2524L27.2955 18.2577L27.6037 17.8639ZM26.6896 17.1422L27.0002 16.7504L26.9937 16.7453L26.987 16.7403L26.6896 17.1422ZM25.1447 15.9528L24.8391 16.3486L24.8452 16.3532L24.8513 16.3577L25.1447 15.9528ZM21.6642 13.2399L21.3433 13.6233L21.35 13.629L21.357 13.6344L21.6642 13.2399ZM21.1789 13.1559L21.202 12.6564L21.1898 12.6559L21.1776 12.6559L21.1789 13.1559ZM15.4406 13.1608L14.9406 13.16L14.9398 13.6619L15.4417 13.6608L15.4406 13.1608ZM15.4435 9.02114L15.4436 8.52114L14.9472 8.52108L14.9435 9.0174L15.4435 9.02114ZM27.6876 9.0231L27.1907 9.07831C27.2285 9.41886 27.2037 9.71602 27.2132 10.1464L27.713 10.1354L28.2129 10.1244C28.2061 9.81477 28.2283 9.36083 28.1846 8.96788L27.6876 9.0231ZM27.713 10.1354H27.213C27.213 12.7384 27.21 15.347 27.216 17.951L27.716 17.9499L28.216 17.9487C28.21 15.3462 28.213 12.74 28.213 10.1354H27.713ZM27.716 17.9499L28.0169 17.5506C27.9802 17.5229 27.9457 17.4967 27.9118 17.4702L27.6037 17.8639L27.2955 18.2577C27.3366 18.2898 27.3768 18.3203 27.415 18.3492L27.716 17.9499ZM27.6037 17.8639L27.9186 17.4755C27.6157 17.23 27.2941 16.9834 27.0002 16.7504L26.6896 17.1422L26.379 17.534C26.6938 17.7837 26.9884 18.0087 27.2888 18.2523L27.6037 17.8639ZM26.6896 17.1422L26.987 16.7403C26.7335 16.5527 26.4857 16.3562 26.2286 16.1532C25.9738 15.9521 25.7107 15.7454 25.438 15.5479L25.1447 15.9528L24.8513 16.3577C25.1052 16.5416 25.3535 16.7365 25.609 16.9381C25.8621 17.1379 26.1235 17.3453 26.3922 17.5442L26.6896 17.1422ZM25.1447 15.9528L25.4502 15.557C24.2874 14.6592 23.1344 13.7512 21.9714 12.8454L21.6642 13.2399L21.357 13.6344C22.5136 14.5352 23.6747 15.4496 24.8391 16.3486L25.1447 15.9528ZM21.6642 13.2399L21.9852 12.8565C21.8038 12.7047 21.6096 12.6657 21.4642 12.6568C21.3982 12.6528 21.335 12.6547 21.2956 12.6558C21.2492 12.657 21.2246 12.6575 21.202 12.6564L21.1789 13.1559L21.1557 13.6554C21.2212 13.6584 21.2833 13.6564 21.3221 13.6554C21.3677 13.6542 21.3879 13.654 21.4033 13.655C21.4158 13.6557 21.4094 13.6566 21.394 13.6514C21.376 13.6454 21.3576 13.6353 21.3433 13.6233L21.6642 13.2399ZM21.1789 13.1559L21.1776 12.6559C19.2539 12.6608 17.3668 12.6564 15.4394 12.6608L15.4406 13.1608L15.4417 13.6608C17.3403 13.6565 19.279 13.6608 21.1801 13.6559L21.1789 13.1559ZM15.4406 13.1608L15.9406 13.1616C15.9428 11.7767 15.9332 10.4015 15.9435 9.02489L15.4435 9.02114L14.9435 9.0174C14.9332 10.3962 14.9427 11.7883 14.9406 13.16L15.4406 13.1608ZM15.4435 9.02114L15.4434 9.52114C19.5133 9.52169 23.63 9.51495 27.6866 9.5231L27.6876 9.0231L27.6887 8.5231C23.6309 8.51495 19.511 8.52169 15.4436 8.52114L15.4435 9.02114Z" fill="black" mask="url(#path-13-outside-5_1_1388)"/>
<path d="M33.3534 11.9868C34.0513 11.9797 34.7508 11.9988 35.4481 11.977L35.5459 12.0259C34.6165 12.0172 33.6866 12.0134 32.7578 12.0259C32.9398 11.9607 33.1616 11.9944 33.3534 11.9868Z" fill="#382509"/>
<path d="M32.7579 12.0259C33.6868 12.0134 34.6167 12.0172 35.5461 12.0259C35.5798 12.1542 35.5896 12.2857 35.5901 12.4183C35.5923 13.1249 35.5858 13.8315 35.5929 14.538C35.589 14.6201 35.5977 14.7157 35.5651 14.7929C35.5184 14.8712 35.4445 14.8478 35.3668 14.8571C34.5689 14.8598 33.7705 14.8543 32.9726 14.8598C32.8982 14.8543 32.802 14.8685 32.7346 14.8321C32.6759 14.7625 32.6889 14.6782 32.6835 14.5929C32.6884 13.7489 32.6949 12.9037 32.6829 12.0596L32.7579 12.0259Z" fill="#070706"/>
<path d="M32.9062 12.2352C33.722 12.2292 34.5384 12.2417 35.3542 12.2259C35.3515 13.0309 35.3439 13.8358 35.3547 14.6402C34.5449 14.6348 33.7345 14.6375 32.9242 14.6402C32.9264 14.407 32.9291 14.1733 32.9242 13.9402C32.8932 13.3727 32.9187 12.8031 32.9062 12.2352Z" fill="#F6C158"/>
<path d="M10.5454 13.1417C10.8343 13.1523 11.1082 13.1636 11.3813 13.1476L11.3862 13.1466C11.8483 13.1289 12.3076 13.1376 12.7631 13.1534L12.7622 13.1544C13.3839 13.1587 13.9771 13.1521 14.604 13.1554H14.6059L15.3842 13.1446C15.6469 13.1382 15.9166 13.1326 16.1879 13.1427H16.1899C16.7444 13.1668 17.2937 13.1546 17.8647 13.1573H17.8657C18.0864 13.1594 18.3053 13.1504 18.5356 13.1437C18.7599 13.137 18.9922 13.1339 19.228 13.1476L19.229 13.1466C19.9089 13.1648 20.5923 13.1593 21.2749 13.1378V13.1368L21.2768 13.1378C21.2781 13.1378 21.2794 13.1369 21.2807 13.1368V13.1378C21.5214 13.1261 21.6996 13.2398 21.8217 13.3351L21.9262 13.419L21.934 13.4259L22.2602 13.6856C22.3706 13.7712 22.4827 13.8566 22.5961 13.9425C23.1583 14.3684 23.6826 14.7906 24.2231 15.2081L24.771 15.6241L24.7729 15.6261C25.1769 15.9325 25.5329 16.2379 25.9096 16.5226L26.2954 16.7999L26.3071 16.8067C26.5341 16.9782 26.7533 17.158 26.9682 17.3351C27.1843 17.5131 27.3951 17.6888 27.6118 17.8565L28.2143 18.3224L27.4526 18.3038C27.136 18.2961 26.8186 18.2995 26.4965 18.3038C26.177 18.3081 25.8521 18.3129 25.5268 18.3077V18.3087C22.3446 18.2989 19.1998 18.3125 16.0151 18.3038H16.0102C15.9118 18.3018 15.8227 18.3063 15.7045 18.3077C15.5948 18.3091 15.4715 18.307 15.3471 18.2862L15.3169 18.2813L15.2885 18.2696C15.1757 18.2207 15.0803 18.1484 15.0034 18.0841C14.9644 18.0515 14.9264 18.0183 14.893 17.9884C14.8585 17.9575 14.8287 17.9299 14.7993 17.9054L14.7973 17.9044C13.9979 17.2273 13.1921 16.6079 12.3745 15.9308L12.3735 15.9298C11.7549 15.4093 11.0591 14.8883 10.437 14.3351L9.9731 13.9776C9.81375 13.8552 9.64934 13.722 9.49654 13.5665L9.11568 13.1788L9.65865 13.1417C9.96129 13.1211 10.2606 13.1313 10.5454 13.1417Z" fill="#DB5837" stroke="black" stroke-width="0.5"/>
<path d="M32.7546 16.9479C33.3884 16.9311 34.0237 16.9539 34.658 16.943C34.9678 16.9479 35.2743 16.918 35.5694 16.9789C35.5923 17.9186 35.5934 18.8594 35.57 19.7991C35.4298 19.8198 35.289 19.8323 35.1471 19.8312C34.6401 19.8263 34.1324 19.8323 33.6253 19.8301C33.3177 19.8263 33.0215 19.847 32.716 19.7981C32.678 19.4747 32.6932 19.1556 32.6916 18.8317C32.6932 18.2137 32.6856 17.5958 32.6927 16.9778L32.7546 16.9479Z" fill="#090907"/>
<path fill-rule="evenodd" clip-rule="evenodd" d="M35.3546 17.1791C35.3476 17.9812 35.3472 18.7843 35.3576 19.5863C34.5403 19.5739 33.7222 19.5922 32.9054 19.5776C32.9201 18.7798 32.9037 17.9818 32.9113 17.184C33.5407 17.1791 34.171 17.1769 34.8009 17.184C34.9851 17.1845 35.1699 17.1786 35.3546 17.1791Z" fill="#F6C158"/>
<path d="M27.637 24.3383C27.7177 24.3044 27.8328 24.2802 27.9554 24.3275L28.0091 24.3529L28.0228 24.3608C28.1306 24.4303 28.2256 24.5122 28.3099 24.5873L28.5482 24.7973L28.5521 24.8002C30.0777 26.1003 31.5988 27.4083 33.1214 28.7104L33.1263 28.7152C33.3212 28.8912 33.5166 29.0653 33.7142 29.2358L34.3148 29.7358L34.3216 29.7416C34.4827 29.8806 34.6398 30.0237 34.7933 30.1635C34.9479 30.3043 35.1004 30.4425 35.2562 30.5746L35.7718 31.0121L35.095 31.015C34.931 31.0158 34.7668 31.0266 34.5931 31.0375C34.4222 31.0482 34.2421 31.0581 34.0599 31.057C29.1933 31.0516 24.3201 31.0618 19.4524 31.0531L18.7054 31.0522L19.3021 30.6039C19.8406 30.1992 20.3879 29.7572 20.9524 29.3588C21.3827 29.031 21.8111 28.7076 22.2357 28.3774L22.2405 28.3734L23.8304 27.1967C24.2389 26.8803 24.6508 26.5628 25.0726 26.2563C25.5724 25.8763 26.0764 25.4819 26.5989 25.1137L26.805 24.9604C26.8734 24.9067 26.9418 24.8508 27.012 24.7934C27.15 24.6805 27.2961 24.5608 27.4495 24.4496L27.4603 24.4408C27.481 24.4275 27.5613 24.3701 27.637 24.3383Z" fill="#358C76" stroke="black" stroke-width="0.5"/>
<mask id="path-22-outside-6_1_1388" maskUnits="userSpaceOnUse" x="14.4541" y="17.2791" width="14" height="15" fill="black">
<rect fill="white" x="14.4541" y="17.2791" width="14" height="15"/>
<path fill-rule="evenodd" clip-rule="evenodd" d="M26.9943 18.3008C27.241 18.2959 27.4743 18.2512 27.7199 18.3066C27.7161 18.6995 27.7062 19.0915 27.6916 19.4844C27.6986 20.6457 27.6751 21.8032 27.7121 22.9629C27.6833 23.3959 27.7005 23.8298 27.6798 24.2617C27.5173 24.4329 27.3072 24.5633 27.1251 24.7138C27.0687 24.7187 27.0121 24.7235 26.9562 24.7295L26.7404 24.8896C26.529 25.0552 26.3283 25.2337 26.1085 25.3887C25.7689 25.6289 25.4354 25.8798 25.0968 26.1211C24.5942 26.5074 24.098 26.8997 23.5812 27.2676C23.3005 27.4611 23.0537 27.6933 22.7843 27.8994C23.0539 27.6932 23.3014 27.4611 23.5822 27.2676C24.0989 26.8997 24.5952 26.5074 25.0978 26.1211C25.4364 25.8798 25.7689 25.6289 26.1085 25.3887C26.4014 25.1822 26.6607 24.9342 26.9562 24.7305C27.0121 24.7245 27.0687 24.7187 27.1251 24.7138C25.8121 25.7258 24.4705 26.7011 23.1564 27.7109C22.3945 28.2712 21.6471 28.8497 20.8869 29.4121C20.4894 29.7133 20.095 30.0186 19.6935 30.3144L19.2892 30.6064C19.2371 30.6445 19.1861 30.6832 19.1339 30.7207C18.4931 30.7169 17.8519 30.7279 17.2111 30.7246C16.9394 30.7235 16.6588 30.7425 16.3791 30.751C16.6592 30.7426 16.9402 30.7235 17.2121 30.7246C17.8526 30.7278 18.4934 30.7169 19.1339 30.7207C19.0927 30.75 19.0521 30.7793 19.0109 30.8086C17.8261 30.7977 16.6395 30.8162 15.4552 30.7988C15.4558 26.6337 15.4512 22.4678 15.4572 18.3027C19.3018 18.2995 23.1492 18.3002 26.9943 18.3008ZM15.5216 30.4521C15.5294 30.5385 15.54 30.6247 15.5519 30.7109C15.6189 30.7225 15.6868 30.7307 15.755 30.7373C15.6868 30.7307 15.6189 30.7225 15.5519 30.7109C15.54 30.6247 15.5295 30.5384 15.5216 30.4521ZM19.757 30.1543C19.6477 30.235 19.5399 30.318 19.4337 30.4033C19.4152 30.4173 19.3993 30.4322 19.3849 30.4472C19.3994 30.4322 19.4152 30.4173 19.4337 30.4033C19.5399 30.318 19.6477 30.2351 19.757 30.1543ZM15.5197 24.8105C15.5143 25.8249 15.5103 26.8393 15.5187 27.8545L15.5148 26.332C15.5155 25.8248 15.517 25.3176 15.5197 24.8105ZM27.4005 23.0088C27.3998 23.4244 27.3963 23.8401 27.3888 24.2558C27.335 24.2887 27.2884 24.3212 27.2472 24.3545C27.2884 24.3211 27.3349 24.2888 27.3888 24.2558C27.3963 23.8401 27.3998 23.4244 27.4005 23.0088ZM27.2072 18.4306C27.2256 18.4386 27.243 18.4473 27.258 18.459L27.2209 18.4355C27.2166 18.4334 27.2116 18.4326 27.2072 18.4306ZM26.9953 18.3867C27.0264 18.3901 27.0634 18.394 27.1007 18.4004C27.0637 18.394 27.0272 18.3901 26.9962 18.3867H26.9953Z"/>
</mask>
<path fill-rule="evenodd" clip-rule="evenodd" d="M26.9943 18.3008C27.241 18.2959 27.4743 18.2512 27.7199 18.3066C27.7161 18.6995 27.7062 19.0915 27.6916 19.4844C27.6986 20.6457 27.6751 21.8032 27.7121 22.9629C27.6833 23.3959 27.7005 23.8298 27.6798 24.2617C27.5173 24.4329 27.3072 24.5633 27.1251 24.7138C27.0687 24.7187 27.0121 24.7235 26.9562 24.7295L26.7404 24.8896C26.529 25.0552 26.3283 25.2337 26.1085 25.3887C25.7689 25.6289 25.4354 25.8798 25.0968 26.1211C24.5942 26.5074 24.098 26.8997 23.5812 27.2676C23.3005 27.4611 23.0537 27.6933 22.7843 27.8994C23.0539 27.6932 23.3014 27.4611 23.5822 27.2676C24.0989 26.8997 24.5952 26.5074 25.0978 26.1211C25.4364 25.8798 25.7689 25.6289 26.1085 25.3887C26.4014 25.1822 26.6607 24.9342 26.9562 24.7305C27.0121 24.7245 27.0687 24.7187 27.1251 24.7138C25.8121 25.7258 24.4705 26.7011 23.1564 27.7109C22.3945 28.2712 21.6471 28.8497 20.8869 29.4121C20.4894 29.7133 20.095 30.0186 19.6935 30.3144L19.2892 30.6064C19.2371 30.6445 19.1861 30.6832 19.1339 30.7207C18.4931 30.7169 17.8519 30.7279 17.2111 30.7246C16.9394 30.7235 16.6588 30.7425 16.3791 30.751C16.6592 30.7426 16.9402 30.7235 17.2121 30.7246C17.8526 30.7278 18.4934 30.7169 19.1339 30.7207C19.0927 30.75 19.0521 30.7793 19.0109 30.8086C17.8261 30.7977 16.6395 30.8162 15.4552 30.7988C15.4558 26.6337 15.4512 22.4678 15.4572 18.3027C19.3018 18.2995 23.1492 18.3002 26.9943 18.3008ZM15.5216 30.4521C15.5294 30.5385 15.54 30.6247 15.5519 30.7109C15.6189 30.7225 15.6868 30.7307 15.755 30.7373C15.6868 30.7307 15.6189 30.7225 15.5519 30.7109C15.54 30.6247 15.5295 30.5384 15.5216 30.4521ZM19.757 30.1543C19.6477 30.235 19.5399 30.318 19.4337 30.4033C19.4152 30.4173 19.3993 30.4322 19.3849 30.4472C19.3994 30.4322 19.4152 30.4173 19.4337 30.4033C19.5399 30.318 19.6477 30.2351 19.757 30.1543ZM15.5197 24.8105C15.5143 25.8249 15.5103 26.8393 15.5187 27.8545L15.5148 26.332C15.5155 25.8248 15.517 25.3176 15.5197 24.8105ZM27.4005 23.0088C27.3998 23.4244 27.3963 23.8401 27.3888 24.2558C27.335 24.2887 27.2884 24.3212 27.2472 24.3545C27.2884 24.3211 27.3349 24.2888 27.3888 24.2558C27.3963 23.8401 27.3998 23.4244 27.4005 23.0088ZM27.2072 18.4306C27.2256 18.4386 27.243 18.4473 27.258 18.459L27.2209 18.4355C27.2166 18.4334 27.2116 18.4326 27.2072 18.4306ZM26.9953 18.3867C27.0264 18.3901 27.0634 18.394 27.1007 18.4004C27.0637 18.394 27.0272 18.3901 26.9962 18.3867H26.9953Z" fill="#DB5837"/>
<path d="M26.9943 18.3008L26.9942 18.8009L27.0042 18.8007L26.9943 18.3008ZM27.7199 18.3066L28.2199 18.3115L28.2238 17.9077L27.8299 17.8189L27.7199 18.3066ZM27.6916 19.4844L27.1919 19.4657L27.1915 19.4765L27.1916 19.4874L27.6916 19.4844ZM27.7121 22.9629L28.211 22.996L28.2126 22.9715L28.2118 22.947L27.7121 22.9629ZM27.6798 24.2617L28.0425 24.6059L28.1704 24.4712L28.1793 24.2856L27.6798 24.2617ZM27.1251 24.7138L27.4304 25.1099L27.4372 25.1046L27.4438 25.0992L27.1251 24.7138ZM26.9562 24.7295L26.9031 24.2323L26.7676 24.2468L26.6582 24.328L26.9562 24.7295ZM26.7404 24.8896L26.4423 24.488L26.4321 24.4959L26.7404 24.8896ZM26.1085 25.3887L25.8204 24.98L25.8198 24.9804L26.1085 25.3887ZM25.0968 26.1211L24.8066 25.7139L24.7993 25.7191L24.7921 25.7247L25.0968 26.1211ZM23.5812 27.2676L23.865 27.6793L23.8712 27.6749L23.5812 27.2676ZM22.7843 27.8994L22.4805 27.5023L23.0881 28.2966L22.7843 27.8994ZM23.5822 27.2676L23.866 27.6793L23.8722 27.6749L23.5822 27.2676ZM25.0978 26.1211L24.8076 25.7139L24.8003 25.7191L24.7931 25.7247L25.0978 26.1211ZM26.9562 24.7305L26.9031 24.2333L26.7769 24.2468L26.6724 24.3188L26.9562 24.7305ZM23.1564 27.7109L23.4527 28.1138L23.461 28.1074L23.1564 27.7109ZM20.8869 29.4121L20.5895 29.0101L20.5848 29.0136L20.8869 29.4121ZM19.6935 30.3144L19.9863 30.7198L19.9901 30.717L19.6935 30.3144ZM19.2892 30.6064L18.9965 30.2011L18.9946 30.2024L19.2892 30.6064ZM19.1339 30.7207L19.4236 31.1283L19.4258 31.1267L19.1339 30.7207ZM17.2111 30.7246L17.2136 30.2246L17.2131 30.2246L17.2111 30.7246ZM16.3791 30.751L16.364 30.2512L16.394 31.2507L16.3791 30.751ZM17.2121 30.7246L17.2146 30.2246L17.2141 30.2246L17.2121 30.7246ZM19.0109 30.8086L19.0063 31.3086L19.1684 31.31L19.3005 31.2162L19.0109 30.8086ZM15.4552 30.7988L14.9552 30.7987L14.9552 31.2915L15.4479 31.2988L15.4552 30.7988ZM15.4572 18.3027L15.4568 17.8027L14.9579 17.8031L14.9572 18.302L15.4572 18.3027ZM15.5216 30.4521L16.0196 30.4067L15.0236 30.497L15.5216 30.4521ZM15.5519 30.7109L15.0566 30.7794L15.1067 31.1416L15.467 31.2037L15.5519 30.7109ZM15.755 30.7373L15.7066 31.2349L15.8034 30.2396L15.755 30.7373ZM19.757 30.1543L20.0542 30.5564L19.4599 29.7521L19.757 30.1543ZM19.4337 30.4033L19.7357 30.8018L19.7414 30.7975L19.7471 30.793L19.4337 30.4033ZM19.3849 30.4472L19.0232 30.102L19.746 30.7931L19.3849 30.4472ZM15.5187 27.8545L15.0187 27.8586L16.0187 27.8532L15.5187 27.8545ZM15.5148 26.332L15.0148 26.3313L15.0148 26.3333L15.5148 26.332ZM27.4005 23.0088L27.9005 23.0096L26.9005 23.0079L27.4005 23.0088ZM27.3888 24.2558L27.6494 24.6826L27.8838 24.5395L27.8887 24.2648L27.3888 24.2558ZM27.2472 24.3545L26.9327 23.9658L27.5617 24.7432L27.2472 24.3545ZM27.2072 18.4306L27.4059 17.9718L27.0085 18.8895L27.2072 18.4306ZM27.258 18.459L26.991 18.8817L27.5657 18.0649L27.258 18.459ZM27.2209 18.4355L27.4878 18.0128L27.466 17.999L27.4429 17.9876L27.2209 18.4355ZM26.9953 18.3867V17.8867L26.9412 18.8838L26.9953 18.3867ZM27.1007 18.4004L27.016 18.8931L27.1856 17.9076L27.1007 18.4004ZM26.9962 18.3867L27.0503 17.8896L27.0233 17.8867H26.9962V18.3867ZM26.9943 18.3008L27.0042 18.8007C27.0784 18.7992 27.1491 18.7948 27.2103 18.7907C27.2747 18.7865 27.326 18.7828 27.3777 18.7807C27.4781 18.7766 27.5483 18.7805 27.6099 18.7944L27.7199 18.3066L27.8299 17.8189C27.6458 17.7774 27.4766 17.7759 27.3373 17.7815C27.2691 17.7843 27.2005 17.7892 27.1441 17.7929C27.0845 17.7969 27.0336 17.7999 26.9844 17.8009L26.9943 18.3008ZM27.7199 18.3066L27.2199 18.3018C27.2161 18.6896 27.2064 19.0768 27.1919 19.4657L27.6916 19.4844L28.1912 19.503C28.206 19.1061 28.216 18.7095 28.2199 18.3115L27.7199 18.3066ZM27.6916 19.4844L27.1916 19.4874C27.1985 20.63 27.1751 21.8117 27.2123 22.9788L27.7121 22.9629L28.2118 22.947C28.1751 21.7947 28.1987 20.6614 28.1915 19.4813L27.6916 19.4844ZM27.7121 22.9629L27.2132 22.9297C27.1977 23.1622 27.1948 23.3919 27.1929 23.6084C27.191 23.829 27.1901 24.034 27.1804 24.2378L27.6798 24.2617L28.1793 24.2856C28.1902 24.0575 28.191 23.8295 28.1929 23.617C28.1948 23.4003 28.1976 23.1966 28.211 22.996L27.7121 22.9629ZM27.6798 24.2617L27.3172 23.9175C27.2644 23.9731 27.1971 24.029 27.1069 24.0978C27.0274 24.1583 26.9075 24.245 26.8065 24.3285L27.1251 24.7138L27.4438 25.0992C27.5248 25.0321 27.6011 24.9784 27.7128 24.8933C27.8137 24.8164 27.9328 24.7215 28.0425 24.6059L27.6798 24.2617ZM27.1251 24.7138L27.082 24.2157C27.0276 24.2204 26.9652 24.2257 26.9031 24.2323L26.9562 24.7295L27.0093 25.2266C27.059 25.2213 27.1098 25.217 27.1683 25.212L27.1251 24.7138ZM26.9562 24.7295L26.6582 24.328L26.4424 24.4881L26.7404 24.8896L27.0383 25.2912L27.2542 25.131L26.9562 24.7295ZM26.7404 24.8896L26.4321 24.4959C26.184 24.6902 26.0304 24.832 25.8204 24.98L26.1085 25.3887L26.3967 25.7973C26.6262 25.6355 26.8739 25.4201 27.0486 25.2833L26.7404 24.8896ZM26.1085 25.3887L25.8198 24.9804C25.5008 25.206 25.1096 25.498 24.8066 25.7139L25.0968 26.1211L25.387 26.5283C25.7613 26.2615 26.0369 26.0517 26.3972 25.7969L26.1085 25.3887ZM25.0968 26.1211L24.7921 25.7247C24.2823 26.1166 23.7981 26.4994 23.2912 26.8602L23.5812 27.2676L23.8712 27.6749C24.3978 27.3 24.9062 26.8983 25.4015 26.5175L25.0968 26.1211ZM23.5812 27.2676L23.2974 26.8559C23.1379 26.9658 22.992 27.0841 22.8597 27.1936C22.7227 27.307 22.6051 27.4069 22.4805 27.5023L22.7843 27.8994L23.0882 28.2965C23.2328 28.1858 23.3735 28.0665 23.4974 27.9639C23.626 27.8574 23.7438 27.7628 23.865 27.6792L23.5812 27.2676ZM22.7843 27.8994L23.0881 28.2966C23.2327 28.1859 23.3734 28.0668 23.4976 27.9642C23.6265 27.8577 23.7445 27.7629 23.866 27.6792L23.5822 27.2676L23.2984 26.8559C23.139 26.9658 22.993 27.0839 22.8605 27.1933C22.7234 27.3067 22.6055 27.4067 22.4806 27.5022L22.7843 27.8994ZM23.5822 27.2676L23.8722 27.6749C24.3988 27.3 24.9071 26.8983 25.4025 26.5175L25.0978 26.1211L24.7931 25.7247C24.2832 26.1166 23.7991 26.4994 23.2922 26.8602L23.5822 27.2676ZM25.0978 26.1211L25.388 26.5283C25.7655 26.2592 26.0344 26.0535 26.3972 25.7969L26.1085 25.3887L25.8198 24.9804C25.5034 25.2042 25.1073 25.5004 24.8076 25.7139L25.0978 26.1211ZM26.1085 25.3887L26.3967 25.7973C26.5606 25.6817 26.7131 25.556 26.8481 25.4454C26.9881 25.3308 27.1117 25.2306 27.24 25.1421L26.9562 24.7305L26.6724 24.3188C26.5052 24.4341 26.3514 24.5597 26.2146 24.6716C26.0729 24.7877 25.9494 24.8891 25.8204 24.98L26.1085 25.3887ZM26.9562 24.7305L27.0093 25.2276C27.0636 25.2218 27.1166 25.2165 27.1683 25.212L27.1251 24.7138L27.082 24.2157C27.0209 24.221 26.9605 24.2271 26.9031 24.2333L26.9562 24.7305ZM27.1251 24.7138L26.8199 24.3178C26.1667 24.8213 25.5058 25.316 24.8417 25.8128C24.1785 26.3089 23.5118 26.8072 22.8518 27.3144L23.1564 27.7109L23.461 28.1074C24.1151 27.6048 24.7763 27.1106 25.4407 26.6136C26.1041 26.1173 26.7706 25.6184 27.4304 25.1099L27.1251 24.7138ZM23.1564 27.7109L22.8602 27.3081C22.1168 27.8548 21.3189 28.4705 20.5895 29.0101L20.8869 29.4121L21.1842 29.814C21.9753 29.2288 22.6723 28.6876 23.4526 28.1137L23.1564 27.7109ZM20.8869 29.4121L20.5848 29.0136C20.1819 29.319 19.7949 29.6187 19.3969 29.9119L19.6935 30.3144L19.9901 30.717C20.3951 30.4186 20.7969 30.1076 21.1889 29.8106L20.8869 29.4121ZM19.6935 30.3144L19.4008 29.9091L18.9965 30.2011L19.2892 30.6064L19.582 31.0118L19.9863 30.7198L19.6935 30.3144ZM19.2892 30.6064L18.9946 30.2024C18.9265 30.2521 18.8977 30.2747 18.8421 30.3147L19.1339 30.7207L19.4258 31.1267C19.4744 31.0917 19.5477 31.0368 19.5838 31.0104L19.2892 30.6064ZM19.1339 30.7207L19.1369 30.2207C18.8131 30.2188 18.4897 30.2206 18.1696 30.2224C17.8485 30.2243 17.5308 30.2262 17.2136 30.2246L17.2111 30.7246L17.2085 31.2246C17.5322 31.2262 17.8555 31.2243 18.1754 31.2224C18.4963 31.2206 18.814 31.2188 19.131 31.2207L19.1339 30.7207ZM17.2111 30.7246L17.2131 30.2246C16.9323 30.2235 16.616 30.2436 16.364 30.2512L16.3791 30.751L16.3941 31.2507C16.7016 31.2415 16.9466 31.2236 17.2091 31.2246L17.2111 30.7246ZM16.3791 30.751L16.394 31.2507C16.7021 31.2415 16.9473 31.2235 17.2101 31.2246L17.2121 30.7246L17.2141 30.2246C16.9332 30.2235 16.6162 30.2436 16.3641 30.2512L16.3791 30.751ZM17.2121 30.7246L17.2095 31.2246C17.533 31.2262 17.8561 31.2243 18.1759 31.2224C18.4966 31.2206 18.8141 31.2188 19.131 31.2207L19.1339 30.7207L19.1369 30.2207C18.8132 30.2188 18.49 30.2206 18.1701 30.2224C17.8492 30.2243 17.5317 30.2262 17.2146 30.2246L17.2121 30.7246ZM19.1339 30.7207L18.8443 30.3131C18.8228 30.3284 18.8016 30.3436 18.7813 30.3581C18.7607 30.3729 18.741 30.387 18.7213 30.401L19.0109 30.8086L19.3005 31.2162C19.322 31.2009 19.3432 31.1857 19.3635 31.1711C19.3841 31.1564 19.4038 31.1423 19.4235 31.1283L19.1339 30.7207ZM19.0109 30.8086L19.0155 30.3086C17.7995 30.2974 16.6597 30.3164 15.4626 30.2989L15.4552 30.7988L15.4479 31.2988C16.6193 31.316 17.8527 31.298 19.0063 31.3086L19.0109 30.8086ZM15.4552 30.7988L15.9552 30.7989C15.9558 26.6329 15.9512 22.4682 15.9572 18.3034L15.4572 18.3027L14.9572 18.302C14.9512 22.4675 14.9558 26.6345 14.9552 30.7987L15.4552 30.7988ZM15.4572 18.3027L15.4576 18.8027C19.3019 18.7995 23.149 18.8002 26.9942 18.8008L26.9943 18.3008L26.9944 17.8008C23.1493 17.8002 19.3016 17.7995 15.4568 17.8027L15.4572 18.3027ZM15.5216 30.4521L15.0236 30.497C15.0324 30.5938 15.044 30.6884 15.0566 30.7794L15.5519 30.7109L16.0472 30.6424C16.0359 30.561 16.0265 30.4832 16.0196 30.4073L15.5216 30.4521ZM15.5519 30.7109L15.467 31.2037C15.5503 31.218 15.6312 31.2276 15.7066 31.2349L15.755 30.7373L15.8034 30.2396C15.7424 30.2337 15.6876 30.2269 15.6368 30.2182L15.5519 30.7109ZM15.755 30.7373L15.8034 30.2396C15.7424 30.2337 15.6876 30.2269 15.6368 30.2182L15.5519 30.7109L15.467 31.2037C15.5503 31.218 15.6313 31.2276 15.7066 31.2349L15.755 30.7373ZM15.5519 30.7109L16.0472 30.6424C16.036 30.5616 16.0266 30.4832 16.0196 30.4067L15.5216 30.4521L15.0237 30.4976C15.0325 30.5936 15.044 30.6879 15.0566 30.7794L15.5519 30.7109ZM19.757 30.1543L19.4599 29.7521C19.3453 29.8367 19.2321 29.9238 19.1204 30.0136L19.4337 30.4033L19.7471 30.793C19.8476 30.7121 19.95 30.6333 20.0541 30.5564L19.757 30.1543ZM19.4337 30.4033L19.1319 30.0047C19.0876 30.0382 19.0518 30.072 19.0232 30.102L19.3849 30.4472L19.7466 30.7925C19.7468 30.7923 19.7428 30.7964 19.7356 30.8019L19.4337 30.4033ZM19.3849 30.4472L19.746 30.7931C19.747 30.792 19.7432 30.7962 19.7357 30.8018L19.4337 30.4033L19.1318 30.0048C19.0873 30.0385 19.0517 30.0723 19.0238 30.1014L19.3849 30.4472ZM19.4337 30.4033L19.7471 30.793C19.8475 30.7122 19.95 30.6334 20.0542 30.5564L19.757 30.1543L19.4598 29.7522C19.3454 29.8367 19.2322 29.9238 19.1204 30.0136L19.4337 30.4033ZM15.5197 24.8105L15.0197 24.8079C15.0143 25.8223 15.0103 26.8397 15.0187 27.8586L15.5187 27.8545L16.0187 27.8503C16.0103 26.8388 16.0142 25.8274 16.0197 24.8132L15.5197 24.8105ZM15.5187 27.8545L16.0187 27.8532L16.0148 26.3307L15.5148 26.332L15.0148 26.3333L15.0187 27.8558L15.5187 27.8545ZM15.5148 26.332L16.0148 26.3327C16.0155 25.826 16.017 25.3195 16.0197 24.8132L15.5197 24.8105L15.0197 24.8078C15.017 25.3158 15.0155 25.8236 15.0148 26.3313L15.5148 26.332ZM27.4005 23.0088L26.9005 23.0079C26.8998 23.4213 26.8963 23.8343 26.8889 24.2469L27.3888 24.2558L27.8887 24.2648C27.8963 23.846 27.8998 23.4275 27.9005 23.0096L27.4005 23.0088ZM27.3888 24.2558L27.1283 23.8291C27.059 23.8714 26.9939 23.9163 26.9328 23.9657L27.2472 24.3545L27.5617 24.7432C27.5829 24.7261 27.6109 24.7061 27.6494 24.6826L27.3888 24.2558ZM27.2472 24.3545L27.5617 24.7432C27.5829 24.726 27.6108 24.7062 27.6494 24.6826L27.3888 24.2558L27.1283 23.8291C27.059 23.8714 26.9939 23.9162 26.9327 23.9658L27.2472 24.3545ZM27.3888 24.2558L27.8887 24.2648C27.8963 23.846 27.8998 23.4276 27.9005 23.0096L27.4005 23.0088L26.9005 23.0079C26.8998 23.4213 26.8963 23.8343 26.8889 24.2469L27.3888 24.2558ZM27.2072 18.4306L27.0085 18.8895C27.0105 18.8903 27.0048 18.888 26.9955 18.8829C26.9859 18.8777 26.9695 18.8681 26.9502 18.853L27.258 18.459L27.5657 18.0649C27.4999 18.0135 27.4356 17.9847 27.4059 17.9718L27.2072 18.4306ZM27.258 18.459L27.525 18.0362L27.4878 18.0128L27.2209 18.4355L26.9539 18.8583L26.991 18.8817L27.258 18.459ZM27.2209 18.4355L27.4429 17.9876C27.4197 17.976 27.3996 17.9683 27.3862 17.9635C27.3734 17.9589 27.3629 17.9557 27.3608 17.955C27.3604 17.9549 27.3601 17.9548 27.3599 17.9547C27.3595 17.9546 27.3597 17.9547 27.3595 17.9546C27.3593 17.9546 27.3597 17.9547 27.3602 17.9548C27.3611 17.9551 27.3639 17.956 27.3676 17.9572C27.3746 17.9595 27.3886 17.9643 27.4059 17.9718L27.2072 18.4306L27.0085 18.8895C27.028 18.8979 27.0443 18.9035 27.0536 18.9066C27.0584 18.9082 27.0624 18.9095 27.0645 18.9101C27.0656 18.9105 27.0665 18.9107 27.0669 18.9109C27.0676 18.9111 27.0674 18.911 27.0674 18.911C27.0672 18.9109 27.065 18.9103 27.0621 18.9094C27.0591 18.9084 27.0545 18.9069 27.0488 18.9048C27.0377 18.9008 27.0199 18.894 26.9988 18.8835L27.2209 18.4355ZM26.9953 18.3867L26.9412 18.8838C26.9762 18.8876 26.9969 18.8899 27.016 18.8931L27.1007 18.4004L27.1854 17.9076C27.1299 17.8981 27.0765 17.8926 27.0494 17.8896L26.9953 18.3867ZM27.1007 18.4004L27.1856 17.9076C27.1308 17.8982 27.0789 17.8927 27.0503 17.8896L26.9962 18.3867L26.9422 18.8838C26.9754 18.8874 26.9966 18.8898 27.0158 18.8931L27.1007 18.4004ZM26.9962 18.3867V17.8867H26.9953V18.3867V18.8867H26.9962V18.3867Z" fill="black" mask="url(#path-22-outside-6_1_1388)"/>
<mask id="path-24-outside-7_1_1388" maskUnits="userSpaceOnUse" x="-0.219578" y="12.4631" width="16" height="19" fill="black">
<rect fill="white" x="-0.219578" y="12.4631" width="16" height="19"/>
<path fill-rule="evenodd" clip-rule="evenodd" d="M9.16812 13.5039C9.2593 13.4427 9.34062 13.4533 9.42691 13.5157C9.81986 13.7928 10.1546 14.1343 10.5373 14.418C10.955 14.7402 11.347 15.0947 11.7599 15.4229C12.4529 15.9588 13.1186 16.5308 13.8029 17.0782C14.2342 17.4486 14.6951 17.7803 15.1281 18.1475L15.214 18.2198C15.2276 22.4085 15.2126 26.6138 15.2218 30.7998C15.1416 30.8031 15.0618 30.8055 14.9816 30.8076C11.3043 30.8104 7.62759 30.8107 3.95034 30.8096C3.68566 30.8134 3.42282 30.814 3.16031 30.7705C3.10503 30.7639 3.04888 30.7563 2.99234 30.7481H0.799953V28.3252C0.779435 28.1107 0.777021 27.8953 0.784328 27.6905C0.782155 25.2268 0.78477 22.7625 0.780422 20.2989C0.788545 20.1885 0.763478 20.0012 0.853664 19.9219C1.3438 19.5632 1.80905 19.173 2.29702 18.8106C3.09706 18.1768 3.91463 17.568 4.71304 16.9326C5.93203 16.0169 7.13057 15.0746 8.33706 14.1426C8.6099 13.9257 8.88006 13.7007 9.16812 13.5039Z"/>
</mask>
<path fill-rule="evenodd" clip-rule="evenodd" d="M9.16812 13.5039C9.2593 13.4427 9.34062 13.4533 9.42691 13.5157C9.81986 13.7928 10.1546 14.1343 10.5373 14.418C10.955 14.7402 11.347 15.0947 11.7599 15.4229C12.4529 15.9588 13.1186 16.5308 13.8029 17.0782C14.2342 17.4486 14.6951 17.7803 15.1281 18.1475L15.214 18.2198C15.2276 22.4085 15.2126 26.6138 15.2218 30.7998C15.1416 30.8031 15.0618 30.8055 14.9816 30.8076C11.3043 30.8104 7.62759 30.8107 3.95034 30.8096C3.68566 30.8134 3.42282 30.814 3.16031 30.7705C3.10503 30.7639 3.04888 30.7563 2.99234 30.7481H0.799953V28.3252C0.779435 28.1107 0.777021 27.8953 0.784328 27.6905C0.782155 25.2268 0.78477 22.7625 0.780422 20.2989C0.788545 20.1885 0.763478 20.0012 0.853664 19.9219C1.3438 19.5632 1.80905 19.173 2.29702 18.8106C3.09706 18.1768 3.91463 17.568 4.71304 16.9326C5.93203 16.0169 7.13057 15.0746 8.33706 14.1426C8.6099 13.9257 8.88006 13.7007 9.16812 13.5039Z" fill="#DB5837"/>
<path d="M9.16812 13.5039L8.88921 13.0889L8.88611 13.0911L9.16812 13.5039ZM9.42691 13.5157L9.13415 13.921L9.1387 13.9242L9.42691 13.5157ZM10.5373 14.418L10.8427 14.022L10.8351 14.0164L10.5373 14.418ZM11.7599 15.4229L11.4488 15.8143L11.454 15.8184L11.7599 15.4229ZM13.8029 17.0782L14.1287 16.6988L14.122 16.6932L14.1152 16.6877L13.8029 17.0782ZM15.1281 18.1475L14.8047 18.5288L14.8063 18.5302L15.1281 18.1475ZM15.214 18.2198L15.714 18.2181L15.7133 17.9863L15.5358 17.8371L15.214 18.2198ZM15.2218 30.7998L15.2421 31.2994L15.7229 31.2799L15.7218 30.7987L15.2218 30.7998ZM14.9816 30.8076L14.982 31.3078L14.9951 31.3075L14.9816 30.8076ZM3.95034 30.8096L3.95049 30.3095L3.94316 30.3097L3.95034 30.8096ZM3.16031 30.7705L3.24201 30.2773L3.23087 30.2754L3.21967 30.2741L3.16031 30.7705ZM2.99234 30.7481L3.06431 30.2533L3.02851 30.2481H2.99234V30.7481ZM0.799953 30.7481H0.299953V31.2481H0.799953V30.7481ZM0.799953 28.3252H1.29995V28.3014L1.29768 28.2776L0.799953 28.3252ZM0.784328 27.6905L1.28401 27.7083L1.28434 27.6992L1.28433 27.69L0.784328 27.6905ZM0.780422 20.2989L0.281771 20.2622L0.28039 20.2809L0.280423 20.2997L0.780422 20.2989ZM0.853664 19.9219L0.5584 19.5184L0.540297 19.5316L0.523452 19.5465L0.853664 19.9219ZM2.29702 18.8106L2.59516 19.212L2.6014 19.2073L2.60748 19.2025L2.29702 18.8106ZM4.71304 16.9326L4.41261 16.5327L4.4017 16.5414L4.71304 16.9326ZM8.33706 14.1426L8.64277 14.5383L8.64817 14.534L8.33706 14.1426ZM9.16812 13.5039L9.44702 13.9189C9.42096 13.9364 9.35629 13.9683 9.26649 13.9624C9.18463 13.957 9.13764 13.9235 9.13417 13.921L9.42691 13.5157L9.71965 13.1103C9.62988 13.0455 9.49908 12.9755 9.3322 12.9645C9.15737 12.953 9.00645 13.0102 8.88922 13.0889L9.16812 13.5039ZM9.42691 13.5157L9.1387 13.9242C9.31313 14.0473 9.47845 14.1873 9.65979 14.3433C9.83574 14.4948 10.0304 14.6646 10.2395 14.8196L10.5373 14.418L10.8351 14.0164C10.6615 13.8877 10.4975 13.7449 10.3121 13.5854C10.1322 13.4305 9.93364 13.2612 9.71511 13.1071L9.42691 13.5157ZM10.5373 14.418L10.2319 14.8139C10.4314 14.9678 10.6265 15.1308 10.8284 15.3007C11.0279 15.4686 11.2355 15.6448 11.4488 15.8143L11.7599 15.4229L12.071 15.0314C11.8714 14.8728 11.6766 14.7076 11.4724 14.5357C11.2706 14.3658 11.0609 14.1904 10.8426 14.0221L10.5373 14.418ZM11.7599 15.4229L11.454 15.8184C12.1486 16.3555 12.7821 16.902 13.4906 17.4686L13.8029 17.0782L14.1152 16.6877C13.4551 16.1597 12.7572 15.562 12.0658 15.0274L11.7599 15.4229ZM13.8029 17.0782L13.4771 17.4575C13.7024 17.651 13.9339 17.833 14.1563 18.0075C14.3814 18.1841 14.5969 18.3526 14.8047 18.5288L15.1281 18.1475L15.4515 17.7662C15.2263 17.5752 14.9948 17.3943 14.7735 17.2206C14.5494 17.0449 14.3347 16.8758 14.1287 16.6988L13.8029 17.0782ZM15.1281 18.1475L14.8063 18.5302L14.8922 18.6024L15.214 18.2198L15.5358 17.8371L15.4499 17.7648L15.1281 18.1475ZM15.214 18.2198L14.714 18.2214C14.7276 22.4143 14.7126 26.6065 14.7218 30.8009L15.2218 30.7998L15.7218 30.7987C15.7126 26.621 15.7276 22.4028 15.714 18.2181L15.214 18.2198ZM15.2218 30.7998L15.2016 30.3002C15.1247 30.3034 15.0475 30.3057 14.9681 30.3078L14.9816 30.8076L14.9951 31.3075C15.0762 31.3053 15.1585 31.3028 15.2421 31.2994L15.2218 30.7998ZM14.9816 30.8076L14.9812 30.3076C11.3042 30.3104 7.62761 30.3107 3.95049 30.3096L3.95034 30.8096L3.9502 31.3096C7.62757 31.3107 11.3045 31.3104 14.982 31.3076L14.9816 30.8076ZM3.95034 30.8096L3.94316 30.3097C3.67705 30.3135 3.45524 30.3126 3.24201 30.2773L3.16031 30.7705L3.0786 31.2638C3.39039 31.3155 3.69426 31.3133 3.95753 31.3095L3.95034 30.8096ZM3.16031 30.7705L3.21967 30.2741C3.16966 30.2681 3.11786 30.2611 3.06431 30.2533L2.99234 30.7481L2.92036 31.2429C2.97989 31.2515 3.04039 31.2598 3.10094 31.267L3.16031 30.7705ZM2.99234 30.7481V30.2481H0.799953V30.7481V31.2481H2.99234V30.7481ZM0.799953 30.7481H1.29995V28.3252H0.799953H0.299953V30.7481H0.799953ZM0.799953 28.3252L1.29768 28.2776C1.27976 28.0902 1.27726 27.8974 1.28401 27.7083L0.784328 27.6905L0.284646 27.6726C0.276779 27.8931 0.279113 28.1312 0.302226 28.3728L0.799953 28.3252ZM0.784328 27.6905L1.28433 27.69C1.28216 25.2281 1.28477 22.7615 1.28042 20.298L0.780422 20.2989L0.280423 20.2997C0.284771 22.7635 0.282154 25.2255 0.284329 27.6909L0.784328 27.6905ZM0.780422 20.2989L1.27907 20.3356C1.28108 20.3083 1.28179 20.2827 1.28213 20.2627C1.28246 20.2432 1.28252 20.2221 1.2826 20.2075C1.2828 20.173 1.28332 20.1546 1.28446 20.1413C1.28567 20.127 1.28626 20.1377 1.27817 20.1612C1.26958 20.1863 1.24494 20.2436 1.18388 20.2973L0.853664 19.9219L0.523452 19.5465C0.320681 19.7248 0.295358 19.971 0.288082 20.0562C0.2832 20.1134 0.282819 20.1675 0.282619 20.2016C0.282503 20.2213 0.28248 20.2336 0.282274 20.2458C0.282181 20.2512 0.28207 20.2553 0.281957 20.2582C0.281843 20.2612 0.281754 20.2624 0.281771 20.2622L0.780422 20.2989ZM0.853664 19.9219L1.14893 20.3254C1.40196 20.1403 1.64719 19.948 1.88531 19.7606C2.12551 19.5717 2.35789 19.3882 2.59516 19.212L2.29702 18.8106L1.99889 18.4092C1.74818 18.5954 1.50396 18.7883 1.267 18.9747C1.02797 19.1627 0.79551 19.3449 0.5584 19.5184L0.853664 19.9219ZM2.29702 18.8106L2.60748 19.2025C3.00416 18.8883 3.40556 18.58 3.81045 18.2686C4.21432 17.958 4.62147 17.6445 5.02438 17.3239L4.71304 16.9326L4.4017 16.5414C4.0062 16.8561 3.60536 17.1648 3.20083 17.4759C2.79733 17.7862 2.38993 18.0991 1.98656 18.4186L2.29702 18.8106ZM4.71304 16.9326L5.01335 17.3324C6.2359 16.414 7.44076 15.4668 8.64274 14.5383L8.33706 14.1426L8.03139 13.7469C6.82039 14.6824 5.62815 15.6198 4.41272 16.5329L4.71304 16.9326ZM8.33706 14.1426L8.64817 14.534C8.93346 14.3073 9.18167 14.1002 9.45012 13.9168L9.16812 13.5039L8.88611 13.0911C8.57845 13.3012 8.28634 13.5442 8.02595 13.7512L8.33706 14.1426Z" fill="black" mask="url(#path-24-outside-7_1_1388)"/>
<mask id="path-26-outside-8_1_1388" maskUnits="userSpaceOnUse" x="26.2218" y="23.4737" width="16" height="8" fill="black">
<rect fill="white" x="26.2218" y="23.4737" width="16" height="8"/>
<path fill-rule="evenodd" clip-rule="evenodd" d="M41.0148 24.4816C41.0371 25.0974 41.0145 25.7164 41.0128 26.3322C41.0232 26.8935 41.02 27.4554 41.0265 28.0167C41.0305 28.2571 41.0065 28.4957 40.9513 28.7267V30.6261H39.341C39.1592 30.6967 38.9536 30.73 38.7648 30.755C38.0013 30.8305 37.2273 30.7889 36.4513 30.8019C36.1622 30.7959 35.8677 30.8205 35.5802 30.7912C35.4461 30.7661 35.3293 30.6308 35.2277 30.546C34.8907 30.227 34.5099 29.9613 34.174 29.6417C33.8109 29.2944 33.4192 28.9839 33.0382 28.6583C32.2724 27.9719 31.4765 27.3226 30.7052 26.6427C30.0878 26.1003 29.4461 25.5847 28.8341 25.0363C28.6287 24.8559 28.4098 24.6941 28.2218 24.4953C32.1965 24.4925 36.173 24.4949 40.1476 24.4933C40.4377 24.4879 40.7247 24.4604 41.0148 24.4816Z"/>
</mask>
<path fill-rule="evenodd" clip-rule="evenodd" d="M41.0148 24.4816C41.0371 25.0974 41.0145 25.7164 41.0128 26.3322C41.0232 26.8935 41.02 27.4554 41.0265 28.0167C41.0305 28.2571 41.0065 28.4957 40.9513 28.7267V30.6261H39.341C39.1592 30.6967 38.9536 30.73 38.7648 30.755C38.0013 30.8305 37.2273 30.7889 36.4513 30.8019C36.1622 30.7959 35.8677 30.8205 35.5802 30.7912C35.4461 30.7661 35.3293 30.6308 35.2277 30.546C34.8907 30.227 34.5099 29.9613 34.174 29.6417C33.8109 29.2944 33.4192 28.9839 33.0382 28.6583C32.2724 27.9719 31.4765 27.3226 30.7052 26.6427C30.0878 26.1003 29.4461 25.5847 28.8341 25.0363C28.6287 24.8559 28.4098 24.6941 28.2218 24.4953C32.1965 24.4925 36.173 24.4949 40.1476 24.4933C40.4377 24.4879 40.7247 24.4604 41.0148 24.4816Z" fill="#4CC0A3"/>
<path d="M41.0148 24.4816L41.5145 24.4635L41.4983 24.0156L41.0512 23.9829L41.0148 24.4816ZM41.0128 26.3322L40.5127 26.3308L40.5129 26.3414L41.0128 26.3322ZM41.0265 28.0167L40.5265 28.0225L40.5266 28.0251L41.0265 28.0167ZM40.9513 28.7267L40.465 28.6105L40.4513 28.6678V28.7267H40.9513ZM40.9513 30.6261V31.1261H41.4513V30.6261H40.9513ZM39.341 30.6261V30.1261H39.2473L39.1599 30.1601L39.341 30.6261ZM38.7648 30.755L38.814 31.2526L38.8223 31.2518L38.8305 31.2507L38.7648 30.755ZM36.4513 30.8019L36.441 31.3018L36.4504 31.302L36.4597 31.3018L36.4513 30.8019ZM35.5802 30.7912L35.4884 31.2827L35.5088 31.2865L35.5295 31.2886L35.5802 30.7912ZM35.2277 30.546L34.8839 30.9091L34.8953 30.9199L34.9073 30.9299L35.2277 30.546ZM34.174 29.6417L33.8284 30.003L33.8293 30.004L34.174 29.6417ZM33.0382 28.6583L32.7044 29.0308L32.7134 29.0385L33.0382 28.6583ZM30.7052 26.6427L31.0359 26.2677L31.0352 26.2671L30.7052 26.6427ZM28.8341 25.0363L29.1678 24.6639L29.1641 24.6606L28.8341 25.0363ZM28.2218 24.4953L28.2215 23.9953L27.0618 23.996L27.8585 24.8387L28.2218 24.4953ZM40.1476 24.4933L40.1478 24.9934L40.157 24.9932L40.1476 24.4933ZM41.0148 24.4816L40.5151 24.4997C40.537 25.1034 40.5145 25.6915 40.5128 26.3308L41.0128 26.3322L41.5128 26.3335C41.5144 25.7413 41.5372 25.0913 41.5145 24.4635L41.0148 24.4816ZM41.0128 26.3322L40.5129 26.3414C40.5233 26.9052 40.5198 27.445 40.5265 28.0225L41.0265 28.0167L41.5265 28.0109C41.5202 27.4658 41.523 26.8818 41.5128 26.323L41.0128 26.3322ZM41.0265 28.0167L40.5266 28.0251C40.53 28.2268 40.5097 28.4233 40.465 28.6105L40.9513 28.7267L41.4376 28.8429C41.5033 28.5681 41.5311 28.2875 41.5264 28.0084L41.0265 28.0167ZM40.9513 28.7267H40.4513V30.6261H40.9513H41.4513V28.7267H40.9513ZM40.9513 30.6261V30.1261H39.341V30.6261V31.1261H40.9513V30.6261ZM39.341 30.6261L39.1599 30.1601C39.0388 30.2071 38.8855 30.2347 38.6991 30.2594L38.7648 30.755L38.8305 31.2507C39.0217 31.2253 39.2796 31.1864 39.522 31.0922L39.341 30.6261ZM38.7648 30.755L38.7156 30.2574C37.9774 30.3304 37.2681 30.2881 36.4429 30.302L36.4513 30.8019L36.4597 31.3018C37.1864 31.2896 38.0252 31.3306 38.814 31.2526L38.7648 30.755ZM36.4513 30.8019L36.4616 30.302C36.3063 30.2988 36.1414 30.3038 36.0092 30.3053C35.8681 30.307 35.7456 30.3054 35.631 30.2937L35.5802 30.7912L35.5295 31.2886C35.7023 31.3062 35.8708 31.307 36.0211 31.3053C36.1803 31.3034 36.3072 31.299 36.441 31.3018L36.4513 30.8019ZM35.5802 30.7912L35.672 30.2996C35.705 30.3058 35.7241 30.3162 35.7266 30.3176C35.7288 30.3189 35.7229 30.3157 35.7066 30.3025C35.6901 30.2892 35.6716 30.2726 35.6442 30.2476C35.6209 30.2263 35.5843 30.1924 35.5481 30.1622L35.2277 30.546L34.9073 30.9299C34.9218 30.942 34.9379 30.9568 34.9693 30.9855C34.9966 31.0105 35.0348 31.0453 35.0769 31.0794C35.1533 31.1414 35.2958 31.2467 35.4884 31.2827L35.5802 30.7912ZM35.2277 30.546L35.5714 30.1829C35.3872 30.0085 35.1932 29.8507 35.0164 29.7066C34.8349 29.5586 34.6705 29.424 34.5186 29.2795L34.174 29.6417L33.8293 30.004C34.0133 30.179 34.2073 30.3371 34.3844 30.4816C34.5663 30.6299 34.7312 30.7645 34.8839 30.9091L35.2277 30.546ZM34.174 29.6417L34.5196 29.2804C34.1432 28.9204 33.7253 28.5878 33.363 28.2782L33.0382 28.6583L32.7134 29.0385C33.1131 29.38 33.4787 29.6685 33.8284 30.003L34.174 29.6417ZM33.0382 28.6583L33.372 28.286C32.6217 27.6135 31.7702 26.9151 31.0359 26.2677L30.7052 26.6427L30.3746 27.0178C31.1827 27.7302 31.9232 28.3303 32.7045 29.0307L33.0382 28.6583ZM30.7052 26.6427L31.0352 26.2671C30.722 25.9919 30.4027 25.7236 30.0902 25.4597C29.7761 25.1944 29.4678 24.9327 29.1678 24.6639L28.8341 25.0363L28.5005 25.4086C28.8125 25.6883 29.131 25.9585 29.445 26.2237C29.7607 26.4903 30.0711 26.7511 30.3752 27.0183L30.7052 26.6427ZM28.8341 25.0363L29.1641 24.6606C28.9147 24.4415 28.7537 24.33 28.5852 24.1518L28.2218 24.4953L27.8585 24.8387C28.066 25.0583 28.3428 25.2702 28.5042 25.412L28.8341 25.0363ZM28.2218 24.4953L28.2222 24.9953C32.1972 24.9925 36.172 24.9949 40.1478 24.9933L40.1476 24.4933L40.1474 23.9933C36.1739 23.9949 32.1958 23.9925 28.2215 23.9953L28.2218 24.4953ZM40.1476 24.4933L40.157 24.9932C40.4996 24.9868 40.7171 24.9612 40.9784 24.9803L41.0148 24.4816L41.0512 23.9829C40.7322 23.9596 40.3759 23.9889 40.1382 23.9934L40.1476 24.4933Z" fill="black" mask="url(#path-26-outside-8_1_1388)"/>
<path d="M20.4726 21.7808C21.234 21.7813 21.9955 21.7808 22.7569 21.7797C22.858 21.7906 22.9444 21.7596 23.001 21.8661C23.0194 21.9938 23.0151 22.127 23.0145 22.2558C23.0069 23.0428 23.0276 23.8309 23.001 24.6173C22.8841 24.6423 22.7667 24.6641 22.6466 24.663C22.0851 24.6608 21.5232 24.6673 20.9617 24.6624C20.6775 24.6559 20.4073 24.6847 20.1274 24.619C20.1101 23.7771 20.1166 22.9346 20.1187 22.0927C20.1285 21.9851 20.1008 21.8764 20.1872 21.7971C20.2802 21.7802 20.378 21.7824 20.4726 21.7808Z" fill="#0F0907"/>
<path d="M23.0494 21.8481C23.1228 22.0748 23.0999 22.2944 23.0983 22.5275C23.0929 22.9259 23.0999 23.3249 23.0983 23.7232C23.0961 24.0113 23.1168 24.2825 23.0755 24.5684C23.0369 24.4678 23.02 24.3754 23.0228 24.2667C23.0293 23.5966 23.0293 22.9259 23.0249 22.2558C23.0244 22.1194 23.0336 21.9835 23.0494 21.8481Z" fill="#D47262"/>
<path d="M20.3447 22.0085C21.1572 22.0074 21.9703 22.0172 22.7828 22.0063C22.7915 22.8123 22.7861 23.6184 22.7893 24.4244C21.9746 24.4195 21.1605 24.4217 20.3463 24.4233C20.3452 23.6184 20.3436 22.8134 20.3447 22.0085Z" fill="#F6C158"/>
</svg>
